<svg width="375" height="280" viewBox="0 0 375 280" fill="none" xmlns="http://www.w3.org/2000/svg">
<path d="M174.151 125.54C174.151 125.54 184.816 120.049 193.864 120.418C202.903 120.787 204.669 121.956 212.425 121.517C220.182 121.077 239.508 117.414 241.853 115.807C244.199 114.199 248.591 105.116 254.591 99.116C260.591 93.1162 278.599 74.414 283.316 65.5153L292.435 70.4522C292.435 70.4522 283.545 88.1266 275.849 101.093C268.154 114.058 264.649 120.199 260.477 124.705C256.304 129.212 255.1 131.513 251.472 132.945C247.844 134.377 235.221 137.557 223.915 140.307C212.61 143.056 200.197 147.879 200.197 147.879L174.151 125.54Z" fill="url(#paint0_linear)"/>
<path d="M198.601 146.5C201.754 142.634 210.679 131.759 213.376 129.422C215.73 127.384 212.252 138.084 210.073 144.347C204.372 146.245 200.199 147.87 200.199 147.87L198.601 146.5Z" fill="url(#paint1_linear)"/>
<path d="M242.417 115.314C242.417 115.314 233.887 127.006 233.299 126.347C232.789 125.785 233.852 120.998 235.143 117.853C238.525 117.08 241.099 116.333 241.864 115.806C242.03 115.683 242.215 115.516 242.417 115.314Z" fill="url(#paint2_linear)"/>
<path d="M210.503 240.985C210.503 240.985 245.439 327.732 247.415 336.297C249.392 344.862 253.565 352.417 252.906 356.985C252.247 361.553 250.929 378.876 250.929 378.876H225.05C225.05 378.876 225.445 369.107 227.352 364.416C229.258 359.725 229.398 358.056 228.669 355.157C227.94 352.259 219.656 338.054 208.061 325.756C196.465 313.457 189.104 296.986 180.372 286.665C171.64 276.343 165.447 270.853 168.329 256.358C171.21 241.864 194.893 209.8 210.503 240.985Z" fill="url(#paint3_linear)"/>
<path d="M183.175 290.24L184.44 231.692C191.432 226.561 199.602 225.516 206.717 234.81C213.226 247.381 222.072 267.453 225.674 289.309C229.759 314.125 228.96 335.718 227.009 351.512C223.944 345.811 216.986 335.226 208.061 325.765C197.722 314.793 190.756 300.527 183.175 290.24Z" fill="url(#paint4_linear)"/>
<path d="M203.318 219.595C203.318 219.595 220.316 253.169 222.266 290.029C225.05 342.666 208.061 378.876 208.061 378.876H207.323H167.617L188.771 219.595H203.318Z" fill="url(#paint5_linear)"/>
<path d="M201.447 206.656C201.447 206.656 207.939 241.249 205.497 286.472C203.054 331.694 182.85 378.885 182.85 378.885H114.384L184.387 207.675L201.447 206.656Z" fill="url(#paint6_linear)"/>
<path d="M201.444 206.656C201.444 206.656 205.16 225.367 194.707 270.299C181.6 326.634 139.364 378.876 139.364 378.876H67.7706L184.385 206.656H201.444Z" fill="url(#paint7_linear)"/>
<path d="M199.722 204.591C199.722 204.591 201.9 241.082 174.8 284.952C147.709 328.83 85.9977 378.875 85.9977 378.875H-28.2008C-28.2008 378.875 -14.8044 354.525 11.7687 350.572C38.3418 346.619 46.4675 342.007 51.5186 332.564C56.5696 323.12 58.5462 310.005 82.2643 301.633C105.982 293.262 120.038 282.343 124.43 263.535C128.822 244.719 135.938 213.709 151.284 205.996L199.722 204.591Z" fill="url(#paint8_linear)"/>
<path d="M135.018 227.466C139.103 217.733 144.356 209.475 151.296 205.988L199.734 204.582C199.734 204.582 199.804 205.768 199.76 207.964C192.768 208.931 171.202 212.409 152.157 220.561C144.707 223.75 139.147 225.946 135.018 227.466Z" fill="#DCCBBD"/>
<path d="M200.857 200.357C200.857 200.357 201.586 202.404 201.446 206.655C201.446 206.655 172.606 204.064 148.15 207.666V204.011C148.15 204.011 179.924 197.941 200.857 200.357Z" fill="url(#paint9_linear)"/>
<path d="M-59.9983 35.0856C-56.8798 35.191 -53.6031 35.4282 -50.2036 35.8586C-44.072 36.6053 -37.589 37.9757 -30.9303 39.838C-24.2629 41.6915 -17.4373 44.0809 -10.5679 46.8568C3.19745 52.3823 17.1121 59.4626 30.8071 66.6571C44.5022 73.8428 57.9952 81.1866 70.9874 87.081C77.4792 90.0326 83.848 92.6241 89.9971 94.6357C93.0717 95.6547 96.0848 96.4804 99.0276 97.2096C101.97 97.8596 104.834 98.457 107.592 98.7644C113.109 99.5023 118.204 99.3705 122.623 98.7293C127.041 98.0792 130.766 96.8406 133.691 95.5142C134.438 95.2155 135.106 94.8553 135.747 94.5215C136.371 94.1789 137.003 93.8978 137.512 93.5728C138.558 92.9139 139.445 92.4396 140.183 91.9037C141.65 90.8496 142.441 90.2962 142.441 90.2962L144.646 93.2214C144.646 93.2214 143.89 93.8187 142.476 94.9432C141.782 95.5054 140.736 96.1642 139.603 96.9548C139.032 97.3589 138.382 97.6927 137.706 98.0968C137.029 98.5009 136.309 98.9313 135.51 99.3003C132.374 100.925 128.315 102.507 123.466 103.473C118.635 104.439 113.03 104.852 107.048 104.36C104.044 104.176 100.96 103.701 97.789 103.157C94.6353 102.551 91.3939 101.83 88.126 100.925C81.5728 99.1421 74.8438 96.7879 68.0271 94.0999C54.3847 88.7237 40.3998 82.0036 26.4237 75.5558C12.4651 69.1079 -1.50226 62.8797 -14.8459 58.303C-21.5046 55.9927 -28.0051 54.0952 -34.1982 52.7073C-40.3825 51.3105 -46.2593 50.3882 -51.6442 50.0104C-54.587 49.7908 -57.3717 49.7293 -59.9983 49.7733V35.0856Z" fill="url(#paint10_linear)"/>
<path d="M-59.9988 0C-54.9037 0.720329 -49.2465 1.94138 -43.2994 3.78612C-37.2996 5.63087 -31.0275 8.1608 -24.6675 11.2529C-18.2987 14.3275 -11.8772 17.9994 -5.47334 22.0755C0.939346 26.1339 7.30809 30.6491 13.6417 35.3313C19.9666 40.0398 26.2475 44.9415 32.4757 49.8784C44.9321 59.7258 57.2304 69.6523 69.4145 77.9185C75.5022 82.0648 81.5635 85.7631 87.5282 88.8552C90.5061 90.4013 93.4753 91.7629 96.3829 92.984C99.3082 94.1523 102.163 95.224 104.974 96.0234C107.768 96.8843 110.508 97.4728 113.117 97.9736C115.744 98.3952 118.256 98.7202 120.628 98.8344C125.372 99.098 129.536 98.7642 132.926 98.2459C136.317 97.6749 138.909 97.0161 140.683 96.4802C142.458 95.918 143.398 95.6193 143.398 95.6193L143.688 96.4538C143.688 96.4538 142.756 96.8052 141.017 97.4553C139.269 98.0878 136.607 98.9135 133.19 99.6778C129.755 100.389 125.495 100.96 120.575 100.952C118.116 100.96 115.507 100.776 112.757 100.468C110.025 100.091 107.153 99.6338 104.219 98.8959C101.267 98.2195 98.254 97.2708 95.1707 96.2167C92.1049 95.1186 88.9688 93.8712 85.8152 92.4481C79.5079 89.6019 73.0953 86.132 66.6738 82.2317C53.8045 74.4662 40.8737 65.102 27.9517 55.9485C21.4863 51.363 15.0209 46.8478 8.58186 42.5609C2.13403 38.3004 -4.27866 34.2508 -10.6299 30.6843C-16.9723 27.109 -23.218 23.9641 -29.2794 21.4254C-35.3319 18.8691 -41.1648 16.875 -46.6112 15.5134C-51.4163 14.2924 -55.914 13.5281 -59.9724 13.0977V0H-59.9988Z" fill="url(#paint11_linear)"/>
<path d="M-59.9972 239.492C-59.233 238.78 -58.4511 238.077 -57.643 237.366C-52.0033 232.376 -45.292 227.536 -37.667 223.398C-35.7871 222.318 -33.7843 221.422 -31.799 220.429C-30.78 219.981 -29.761 219.533 -28.7332 219.085C-28.2237 218.866 -27.7054 218.637 -27.1871 218.418L-25.6059 217.811C-21.4069 216.134 -17.0146 214.772 -12.5346 213.569C-3.56558 211.188 5.78111 209.73 15.163 208.72C24.5536 207.701 33.9969 207.121 43.3524 206.471C45.6891 206.304 48.0258 206.137 50.3625 205.97L53.8323 205.706L57.2759 205.417C61.8526 204.977 66.403 204.477 70.8743 203.827C75.3368 203.15 79.7466 202.386 84.0334 201.411C88.3115 200.427 92.4841 199.285 96.4986 197.941C100.496 196.562 104.317 194.981 107.927 193.18C111.546 191.405 114.876 189.306 117.968 187.074C121.069 184.852 123.836 182.366 126.313 179.775C128.834 177.209 130.943 174.434 132.858 171.693C136.609 166.132 139.253 160.466 141.168 155.266C141.405 154.616 141.66 153.983 141.871 153.342C142.073 152.701 142.275 152.068 142.477 151.453C142.872 150.215 143.267 149.029 143.557 147.852C143.873 146.683 144.172 145.568 144.462 144.496C144.708 143.416 144.936 142.379 145.156 141.395C145.63 139.436 145.894 137.679 146.184 136.151C146.482 134.64 146.658 133.287 146.807 132.189C147.115 130.01 147.273 128.842 147.273 128.842L152.157 129.431C152.157 129.431 152.043 130.599 151.823 132.795C151.718 133.893 151.595 135.237 151.349 136.871C151.112 138.496 150.901 140.385 150.497 142.44C150.312 143.477 150.11 144.566 149.908 145.708C149.654 146.841 149.381 148.036 149.109 149.275C148.854 150.522 148.485 151.796 148.125 153.122C147.941 153.79 147.756 154.466 147.563 155.152C147.37 155.837 147.124 156.522 146.895 157.234C145.086 162.856 142.485 169.11 138.603 175.409C136.617 178.518 134.386 181.707 131.698 184.685C129.054 187.698 126.058 190.615 122.703 193.241C119.356 195.877 115.728 198.371 111.819 200.488C107.918 202.632 103.799 204.538 99.5205 206.207C95.2337 207.841 90.8151 209.247 86.2999 210.476C81.7846 211.697 77.1815 212.69 72.5257 213.586C67.8699 214.465 63.1702 215.176 58.453 215.817L54.9128 216.257L51.3815 216.678C49.036 216.942 46.6993 217.205 44.3539 217.469C34.9896 218.505 25.6956 219.463 16.7266 220.807C7.75763 222.142 -0.877533 223.873 -8.86264 226.35C-12.842 227.597 -16.6984 228.968 -20.3089 230.593L-21.6704 231.181L-22.9969 231.823C-23.8754 232.253 -24.745 232.675 -25.6147 233.096C-27.2925 234.036 -29.0055 234.871 -30.5867 235.872C-37.017 239.711 -42.6039 244.086 -47.3387 248.645C-52.0912 253.178 -56.0617 257.79 -59.3296 262.094C-59.5492 262.384 -59.7688 262.656 -59.9884 262.937V239.492H-59.9972Z" fill="url(#paint12_linear)"/>
<path d="M162.197 100.143C162.197 100.143 160.598 182.718 87.6871 194.726C14.7757 206.735 -4.26025 181.699 -59.9891 213.657V105.186C-59.9891 105.186 -13.9144 98.3865 55.4831 111.853C124.881 125.32 162.197 100.143 162.197 100.143Z" fill="url(#paint13_linear)"/>
<path d="M131.018 202.009C131.018 202.009 136.394 180.706 141.226 174.557C146.057 168.408 153.542 181.04 151.284 188.278C149.026 195.526 136.175 202.553 131.018 202.009Z" fill="url(#paint14_linear)"/>
<path d="M180.432 104.061C180.432 104.061 175.6 107.241 173.509 113.18C171.419 119.118 170.435 122.509 172.086 123.062C173.738 123.616 176.918 123.941 178.675 125.153C180.432 126.365 198.106 138.989 203.491 150.189C208.876 161.389 202.832 187.418 192.071 194.111C181.31 200.805 155.071 200.155 150.45 194.111C145.829 188.068 145.838 183.131 139.03 176.542C132.222 169.954 128.594 169.075 123.324 165.781C118.053 162.487 109.813 149.864 117.508 139.647C125.203 129.431 131.669 129.879 137.168 127.015C142.667 124.152 147.99 117.352 151.803 109.112C155.615 100.873 159.937 91.7631 159.937 91.7631L180.432 104.061Z" fill="url(#paint15_linear)"/>
<path d="M128.676 159.729L136.362 160.827C136.362 160.827 144.418 160.168 148.221 171.517C150.488 178.273 149.636 186.1 148.582 191.318C145.683 186.46 144.769 182.076 139.033 176.533C132.225 169.945 128.597 169.067 123.326 165.772C122.834 165.465 122.307 165.07 121.78 164.604L128.676 159.729Z" fill="url(#paint16_linear)"/>
<path d="M184.388 141.993C184.388 141.993 152.324 131.188 143.909 120.427C143.909 120.427 136.609 125.785 135.388 127.832C135.388 127.832 160.889 143.565 184.388 143.126V141.993Z" fill="url(#paint17_linear)"/>
<path d="M114.84 141.184C116.685 139.234 118.565 137.618 120.322 136.291C126.796 129.483 132.357 129.51 137.162 127.006C142.652 124.151 147.984 117.343 151.797 109.103C154.485 103.306 157.419 97.0774 158.921 93.8974C159.966 96.7172 160.678 100.134 160.441 104.052C159.518 119.513 147.993 132.892 119.268 140.192C117.818 140.569 116.342 140.894 114.84 141.184Z" fill="url(#paint18_linear)"/>
<path d="M171.5 122.561C171.5 122.561 182.121 133.761 184.387 141.439L185.556 140.842C185.556 140.842 182.771 131.987 177.43 123.932C177.43 123.932 174.276 122.728 171.5 122.561Z" fill="url(#paint19_linear)"/>
<path d="M167.627 172.923C167.627 172.923 160.16 172.686 153.572 169.102C146.984 165.517 146.175 164.419 146.175 164.419C146.175 164.419 148.688 173.494 160.204 176.498C171.721 179.494 167.627 172.923 167.627 172.923Z" fill="url(#paint20_linear)"/>
<path d="M159.939 91.7631L180.434 104.061C180.434 104.061 175.602 107.241 173.511 113.18C172.756 115.332 172.141 117.15 171.746 118.617C165.131 112.301 160.976 99.8184 159.175 93.3531C159.658 92.3428 159.939 91.7631 159.939 91.7631Z" fill="url(#paint21_linear)"/>
<path d="M129.589 80.7823C121.885 80.7823 115.639 74.5367 115.639 66.8325C115.639 59.1282 121.885 52.8827 129.589 52.8827C137.294 52.8827 143.539 59.1282 143.539 66.8325C143.539 74.5367 137.294 80.7823 129.589 80.7823Z" fill="url(#paint22_linear)"/>
<path d="M135.801 76.6623C135.801 76.6623 130.196 71.1632 130.196 66.3405C130.196 66.3405 131.567 66.6743 132.226 67.1135C132.226 67.1135 129.485 60.5251 129.204 57.7229C129.204 57.7229 130.627 57.6175 131.453 58.4344C131.453 58.4344 131.505 52.5576 128.431 50.256C133.368 50.3087 139.245 53.4975 141.88 58.5486C141.889 58.5398 136.46 68.3697 135.801 76.6623Z" fill="url(#paint23_linear)"/>
<path d="M183.358 57.459C185.106 59.5937 187.97 64.3373 188.699 67.122C189.428 69.9067 188.849 72.8319 189.868 74.9578C190.895 77.0836 192.433 80.817 194.11 82.899C195.788 84.9809 197.73 86.7466 197.44 87.7656C197.15 88.7934 196.412 89.2326 195.209 89.8124C194.005 90.3921 193.601 90.5063 193.487 91.13C193.381 91.7537 193.232 92.0085 193.522 92.5531C193.812 93.0978 194.506 93.7654 194.295 94.2749C194.075 94.7844 193.048 95.3027 192.468 95.5223C192.468 95.5223 193.416 96.4007 192.942 97.4285C192.468 98.4563 191.774 98.0522 191.624 99.5544C191.475 101.057 191.37 104.386 191.115 105.335C190.86 106.283 189.929 108.558 184.219 107.68C178.509 106.802 171.042 103.727 165.877 100.16C160.712 96.594 155.23 88.0467 153.711 74.7381C151.514 55.5616 173.669 45.5912 183.358 57.459Z" fill="url(#paint24_linear)"/>
<path opacity="0.4" d="M169.874 86.9666C170.445 91.0426 174.996 93.7921 180.038 93.0894C185.089 92.3866 188.717 88.5039 188.146 84.4278C187.575 80.3518 183.033 77.6111 177.973 78.3138C172.94 79.0166 169.312 82.8906 169.874 86.9666Z" fill="url(#paint25_radial)"/>
<path d="M173.248 84.1907C173.292 84.4015 174.188 84.4103 175.26 84.217C176.34 84.015 177.166 83.6899 177.131 83.4791C177.087 83.2683 176.191 83.2507 175.119 83.4528C174.056 83.646 173.213 83.9798 173.248 84.1907Z" fill="#FFF3F0"/>
<path d="M184.168 55.5621C184.537 56.5372 186.144 60.5429 177.509 72.3229C168.874 84.1029 162.865 85.649 157.454 82.715C152.034 79.7898 138.199 85.3503 138.199 85.3503C138.199 85.3503 132.998 80.9581 135.054 68.8794C137.109 56.8007 149.258 48.6751 161.188 47.5067C174.751 46.1715 182.85 52.1186 184.168 55.5621Z" fill="url(#paint26_linear)"/>
<path d="M156.162 84.0762C156.162 84.0762 162.9 92.4127 160.449 104.061C157.251 119.214 143.864 130.748 114.383 133.709C65.1368 138.663 0.667343 94.2838 -59.9984 120.427V74.3079C-18.0964 64.0563 14.8455 79.8333 42.0775 89.2591C69.3094 98.6849 106.134 106.881 123.993 100.732C141.852 94.5825 137.758 86.246 137.758 86.246L155.178 82.4247L156.162 84.0762Z" fill="url(#paint27_linear)"/>
<path d="M188.779 67.439C188.779 67.439 193.663 74.7301 193.865 82.5571C193.865 82.5571 166.405 81.8368 159.623 82.8558C152.842 83.8836 138.198 87.0284 138.198 87.0284L136.459 83.8396C136.459 83.8572 167.336 71.0494 188.779 67.439Z" fill="url(#paint28_linear)"/>
<path d="M182.341 48.6835C182.341 48.6835 172.309 34.9182 164.622 30.5259C164.622 30.5259 167.627 39.3104 169.164 41.4363L170.842 40.4085C170.842 40.4085 175.454 47.2165 177.87 53.1812L182.341 48.6835Z" fill="url(#paint29_linear)"/>
<path d="M176.64 55.5797C176.64 55.5797 167.565 43.1321 160.617 39.1615C160.617 39.1615 163.331 47.1027 164.719 49.0265L166.239 48.0953C166.239 48.0953 170.411 54.2533 172.599 59.647L176.64 55.5797Z" fill="url(#paint30_linear)"/>
<path d="M170.946 62.4836C170.946 62.4836 162.829 51.3537 156.619 47.796C156.619 47.796 159.043 54.9026 160.291 56.6156L161.652 55.7899C161.652 55.7899 165.386 61.2977 167.336 66.1204L170.946 62.4836Z" fill="url(#paint31_linear)"/>
<path d="M165.246 69.3885C165.246 69.3885 158.087 59.5674 152.605 56.4401C152.605 56.4401 154.749 62.7035 155.847 64.2232L157.05 63.4941C157.05 63.4941 160.344 68.3519 162.066 72.6036L165.246 69.3885Z" fill="url(#paint32_linear)"/>
<path d="M159.546 76.2935C159.546 76.2935 153.353 67.7901 148.6 65.0757C148.6 65.0757 150.454 70.5045 151.403 71.8134L152.439 71.1809C152.439 71.1809 155.285 75.3887 156.779 79.0694L159.546 76.2935Z" fill="url(#paint33_linear)"/>
<path d="M155.329 81.9858L186.804 58.0481C186.804 58.0481 186.514 50.9502 180.584 46.1187L152.843 80.7824L155.329 81.9858Z" fill="url(#paint34_linear)"/>
<path d="M160.959 84.1117C158.587 79.8776 154.845 76.9875 152.359 80.106C149.873 83.2333 156.312 96.656 160.959 94.4335C162.742 93.5814 162.47 86.7998 160.959 84.1117Z" fill="url(#paint35_linear)"/>
<path d="M184.528 95.6899C184.572 95.6723 185.134 95.9358 185.609 95.848C186.092 95.7689 190.897 94.2404 191.521 93.9857C192.153 93.7221 192.812 93.5025 193.014 93.564C193.181 93.6079 193.787 93.8802 194.323 93.9857C194.341 94.0911 194.341 94.1965 194.297 94.2931C194.077 94.8026 193.049 95.3209 192.469 95.5405C192.469 95.5405 191.916 95.3561 191.301 95.3561C190.677 95.3561 188.033 95.8041 186.496 95.9183C184.959 96.0325 184.3 96.1379 184.274 95.9183C184.247 95.6811 184.484 95.7074 184.528 95.6899Z" fill="#DD6F76"/>
<path d="M192.072 90.3833C192.072 90.3833 193.249 89.8914 192.872 89.5839C192.485 89.2852 191.694 89.092 190.921 89.417C190.148 89.742 189.437 90.3745 189.437 90.3745C189.437 90.3745 190.675 90.1373 192.072 90.3833Z" fill="#DD8076"/>
<path d="M184.976 141.281C186.478 140.939 199.62 143.547 201.298 144.505C202.984 145.454 208.545 154.168 209.353 159.729C210.161 165.289 206.647 171.368 204.741 177.807C202.835 184.246 202.325 186.662 202.984 188.937C203.643 191.203 207.596 194.058 206.428 197.063C205.259 200.067 201.965 201.604 200.568 202.114C199.181 202.623 184.721 200.357 170.007 202.114C155.293 203.871 151.999 205.188 151.34 204.31C150.681 203.431 157.489 175.76 160.458 167.749C163.428 159.737 176.227 143.258 184.976 141.281Z" fill="url(#paint36_linear)"/>
<path d="M179.872 201.464C176.692 201.525 173.353 201.719 169.998 202.114C155.284 203.871 151.99 205.189 151.331 204.31C151.076 203.968 151.972 199.47 153.334 193.663L192.038 168.505C192.038 168.505 188.296 185.643 179.872 201.464Z" fill="#D1BCAC"/>
<path d="M199.381 143.846C200.277 144.294 199.75 157.638 193.276 166.756C186.802 175.875 176.252 191.133 162.864 201.35C149.477 211.566 145.076 214.307 141.781 213.542C138.487 212.778 130.906 203.66 131.02 202.017C131.135 200.374 144.417 191.256 151.769 180.056C159.122 168.856 164.252 157.111 172.228 149.644C180.205 142.177 182.867 141.606 185.379 141.264C187.9 140.921 196.693 142.511 199.381 143.846Z" fill="url(#paint37_linear)"/>
<path d="M181.164 141.993C181.164 143.828 182.605 145.322 184.388 145.322C186.163 145.322 187.612 143.828 187.612 141.993C187.612 140.157 186.172 138.663 184.388 138.663C182.605 138.654 181.164 140.148 181.164 141.993Z" fill="url(#paint38_linear)"/>
<path d="M281.887 67.9213C281.887 67.9213 290.32 71.9534 292.437 70.4512C294.554 68.9491 298.806 63.8277 299.394 61.9215C299.983 60.0152 297.708 46.9175 295.441 46.6189C293.175 46.329 289.512 48.6657 287.605 50.7212C285.699 52.768 282.923 54.6743 282.625 57.3799C282.335 60.1031 281.509 66.8144 281.887 67.9213Z" fill="url(#paint39_linear)"/>
<path d="M285.396 23.2439C285.396 18.7989 288.76 14.8459 293.197 13.0363C297.633 14.8459 300.997 18.7989 300.997 23.2439C305.047 23.9555 307.05 28.5673 303.756 32.1338C303.756 32.1338 302.333 29.4985 300.347 30.1573C298.362 30.8161 295.955 40.6987 295.955 44.9855C295.955 49.2724 295.955 111.642 295.955 111.642H293.197H290.438C290.438 111.642 290.438 49.2724 290.438 44.9855C290.438 40.6987 288.023 30.8249 286.046 30.1573C284.07 29.4897 282.638 32.1338 282.638 32.1338C279.343 28.5673 281.338 23.9555 285.396 23.2439Z" fill="url(#paint40_linear)"/>
<path d="M329.221 187.523L343.11 138.796L357.007 187.523L358.702 187.04L343.11 132.392L327.526 187.04L329.221 187.523Z" fill="url(#paint41_linear)"/>
<path d="M343.111 200.015C334.054 200.015 326.71 193.892 326.71 186.346H359.512C359.512 193.901 352.168 200.015 343.111 200.015Z" fill="url(#paint42_linear)"/>
<path d="M307.585 111.898C307.585 111.898 307.665 111.933 307.814 111.994C307.893 112.029 307.981 112.065 308.095 112.117C308.192 112.161 308.385 112.231 308.358 112.267C308.385 112.319 308.886 112.688 309.096 113.215C309.193 113.338 309.167 113.505 309.246 113.655C309.246 113.813 309.298 113.988 309.263 114.164C309.246 114.252 309.237 114.34 309.228 114.436V114.472C309.175 114.647 309.298 114.243 309.29 114.296L309.281 114.313L309.272 114.349L309.228 114.48L309.132 114.753C309.07 114.92 309 115.157 308.938 115.271C308.877 115.332 308.824 115.394 308.789 115.464C308.771 115.499 308.754 115.543 308.736 115.578L308.604 115.719C308.517 115.816 308.429 115.912 308.35 116.018C308.244 116.097 308.13 116.176 308.016 116.264C307.963 116.308 307.91 116.351 307.849 116.395L307.656 116.483C307.164 116.782 306.54 116.87 305.916 116.817L305.679 116.791L305.556 116.782H305.53H305.512C305.591 116.808 305.328 116.729 305.679 116.835L305.591 116.799C305.345 116.712 305.099 116.624 304.853 116.536L304.485 116.404L304.309 116.272C304.186 116.185 304.063 116.114 303.922 116.044C303.351 115.543 302.763 114.955 302.473 114.173C302.201 113.409 301.981 112.539 302.201 111.678C302.359 110.721 302.736 109.86 303.36 109.078C304.564 107.514 306.663 106.513 308.771 106.732C309.035 106.741 309.298 106.803 309.553 106.847L309.65 106.864H309.676C309.773 106.891 309.571 106.829 309.606 106.838L309.667 106.855L309.905 106.926L310.388 107.075C310.572 107.128 310.642 107.18 310.757 107.233L311.073 107.382C311.293 107.488 311.53 107.655 311.758 107.787C312.663 108.401 313.454 109.262 314.112 110.273C315.43 112.293 316.247 114.779 316.783 117.256C317.31 119.742 317.556 122.342 318.013 124.925C318.25 126.216 318.549 127.517 319.049 128.773C319.541 130.029 320.279 131.224 321.21 132.172C321.456 132.401 321.685 132.629 321.931 132.849C322.185 133.042 322.449 133.235 322.704 133.428C322.958 133.613 323.239 133.762 323.503 133.92L323.705 134.035L323.802 134.096L323.854 134.122L323.969 134.175L323.995 134.184L324.373 134.342L324.75 134.5C324.891 134.553 325.102 134.597 325.269 134.65C325.629 134.746 325.989 134.825 326.323 134.816L326.832 134.834C326.999 134.825 327.175 134.79 327.342 134.773C327.684 134.737 328.001 134.641 328.317 134.518C329.573 134.052 330.513 133.095 331.014 132.023C331.523 130.951 331.602 129.739 331.295 128.694C331.207 128.439 331.102 128.193 330.996 127.956C330.891 127.719 330.724 127.525 330.592 127.314C330.46 127.095 330.293 126.937 330.126 126.77L329.881 126.524L329.758 126.41L329.722 126.383L329.635 126.313L329.582 126.278L329.362 126.129L329.257 126.05L329.09 125.953C328.862 125.83 328.633 125.707 328.422 125.654C328.001 125.496 327.553 125.443 327.14 125.452C326.305 125.47 325.602 125.786 325.102 126.172C324.592 126.559 324.25 127.025 324.065 127.49C323.67 128.421 323.977 129.107 323.942 129.08C324.083 129.598 324.619 129.906 325.137 129.765C325.655 129.625 325.963 129.089 325.822 128.571C325.848 128.553 325.769 128.527 325.884 128.263C325.963 128.017 326.472 127.49 327.192 127.499C327.368 127.499 327.553 127.517 327.737 127.604C327.843 127.631 327.904 127.683 327.983 127.719L328.045 127.745L328.15 127.824L328.361 127.982C328.387 128 328.528 128.158 328.607 128.237C328.703 128.333 328.809 128.43 328.87 128.553C328.932 128.676 329.037 128.773 329.081 128.904C329.125 129.036 329.178 129.159 329.23 129.3C329.371 129.844 329.318 130.486 329.02 131.083C328.721 131.672 328.176 132.181 327.526 132.401C327.368 132.462 327.201 132.515 327.017 132.515C326.929 132.524 326.841 132.541 326.753 132.55L326.472 132.524C326.279 132.524 326.112 132.48 325.963 132.436C325.875 132.409 325.813 132.418 325.699 132.374L325.33 132.207L324.952 132.032L324.926 132.023C324.838 131.979 325.023 132.067 324.996 132.058L324.961 132.032L324.882 131.979L324.724 131.882C324.522 131.742 324.294 131.628 324.1 131.478C323.907 131.329 323.714 131.171 323.521 131.022L322.993 130.503C321.632 129.063 320.982 126.919 320.613 124.503C320.235 122.079 320.059 119.452 319.559 116.72C319.032 114.006 318.241 111.23 316.669 108.665C315.878 107.391 314.868 106.179 313.559 105.248C313.216 105.028 312.909 104.8 312.531 104.598L311.943 104.308C311.749 104.22 311.53 104.106 311.389 104.071L310.915 103.904L310.678 103.825L310.616 103.807L310.484 103.772L310.449 103.763L310.3 103.728C309.905 103.64 309.518 103.552 309.114 103.517C305.908 103.104 302.649 104.527 300.707 106.926C299.723 108.094 299.029 109.579 298.766 111.01C298.704 111.397 298.634 111.783 298.59 112.161C298.599 112.548 298.616 112.934 298.625 113.312C298.616 113.699 298.731 114.067 298.81 114.436C298.906 114.797 298.959 115.183 299.135 115.508C299.653 116.922 300.628 118.056 301.7 118.978C302.025 119.198 302.359 119.408 302.692 119.602L303.193 119.892L303.571 120.041C303.817 120.138 304.063 120.225 304.3 120.322L304.388 120.357C304.757 120.471 304.511 120.392 304.599 120.419L304.634 120.427L304.695 120.436L304.95 120.48L305.468 120.568C306.839 120.744 308.236 120.524 309.369 119.935L309.799 119.733C309.931 119.654 310.063 119.558 310.186 119.47C310.44 119.294 310.695 119.11 310.924 118.925C311.134 118.706 311.345 118.495 311.547 118.275C311.644 118.17 311.749 118.064 311.846 117.95L312.118 117.537C312.294 117.256 312.452 116.975 312.601 116.703C312.716 116.466 312.751 116.325 312.83 116.132L312.935 115.868L312.988 115.737L313.006 115.701L313.014 115.684C313.005 115.719 313.128 115.306 313.076 115.473L313.093 115.368C313.146 115.095 313.19 114.832 313.225 114.568C313.295 114.041 313.243 113.523 313.199 113.04C313.085 112.565 313.014 112.091 312.821 111.696C312.637 111.292 312.47 110.905 312.224 110.598C311.995 110.281 311.784 109.974 311.521 109.745C311.257 109.508 311.055 109.297 310.774 109.113C310.484 108.929 310.212 108.779 309.966 108.647C309.685 108.498 309.597 108.489 309.474 108.454C309.36 108.419 309.263 108.384 309.184 108.366C309.026 108.322 308.947 108.296 308.947 108.296C307.928 107.98 306.839 108.551 306.523 109.57C306.206 110.501 306.689 111.511 307.585 111.898Z" fill="url(#paint43_linear)"/>
<path d="M294.585 118.776C294.585 118.776 323.029 139.859 332.139 142.714C341.249 145.569 344.877 138.067 345.825 136.6C346.774 135.133 349.629 132.937 351.605 132.866C350.218 130.67 347.503 129.203 345.087 130.6C343.989 128.334 340.555 127.262 338.719 128.773C337.181 130.038 337.621 132.12 337.621 132.12C339.325 131.347 341.187 132.12 341.134 134.316C341.082 136.512 339.597 141.616 332.842 138.814C326.086 136.011 298.09 114.437 298.09 114.437L294.585 118.776Z" fill="url(#paint44_linear)"/>
<path d="M257.162 187.523L243.265 138.795L229.368 187.523L227.681 187.04L243.265 132.391L258.849 187.04L257.162 187.523Z" fill="url(#paint45_linear)"/>
<path d="M243.267 200.015C252.324 200.015 259.668 193.892 259.668 186.346H226.867C226.867 193.901 234.21 200.015 243.267 200.015Z" fill="url(#paint46_linear)"/>
<path d="M278.801 111.898C278.801 111.898 278.722 111.933 278.572 111.994C278.493 112.029 278.405 112.065 278.291 112.117C278.194 112.161 278.001 112.231 278.028 112.267C278.001 112.319 277.5 112.688 277.29 113.215C277.193 113.338 277.211 113.505 277.14 113.655C277.14 113.813 277.088 113.988 277.123 114.164C277.14 114.252 277.149 114.34 277.158 114.436V114.472C277.211 114.647 277.088 114.243 277.096 114.296L277.105 114.313L277.114 114.349L277.158 114.48L277.254 114.753C277.316 114.92 277.386 115.157 277.448 115.271C277.509 115.332 277.562 115.394 277.597 115.464C277.615 115.499 277.632 115.543 277.65 115.578L277.782 115.719C277.869 115.816 277.957 115.912 278.036 116.018C278.142 116.097 278.256 116.176 278.37 116.264C278.423 116.308 278.476 116.351 278.537 116.395L278.73 116.483C279.222 116.782 279.846 116.87 280.47 116.817L280.707 116.791L280.83 116.782H280.856H280.874C280.795 116.808 281.058 116.729 280.707 116.835L280.795 116.799C281.041 116.712 281.287 116.624 281.533 116.536L281.901 116.404L282.077 116.272C282.2 116.185 282.323 116.114 282.464 116.044C283.035 115.543 283.623 114.955 283.913 114.173C284.185 113.409 284.405 112.539 284.185 111.678C284.027 110.721 283.65 109.86 283.026 109.078C281.822 107.514 279.723 106.513 277.615 106.732C277.351 106.741 277.088 106.803 276.833 106.847L276.736 106.864H276.71C276.613 106.891 276.815 106.829 276.78 106.838L276.719 106.855L276.481 106.926L275.998 107.075C275.814 107.128 275.744 107.18 275.629 107.233L275.313 107.382C275.094 107.488 274.856 107.655 274.628 107.787C273.723 108.401 272.933 109.262 272.274 110.273C270.956 112.293 270.139 114.779 269.603 117.256C269.076 119.742 268.83 122.342 268.373 124.925C268.136 126.216 267.838 127.517 267.337 128.773C266.845 130.029 266.107 131.224 265.176 132.172C264.93 132.401 264.701 132.629 264.455 132.849C264.201 133.042 263.937 133.235 263.682 133.428C263.428 133.613 263.147 133.762 262.883 133.92L262.681 134.035L262.584 134.096L262.532 134.122L262.417 134.175L262.391 134.184L262.013 134.342L261.636 134.5C261.495 134.553 261.284 134.597 261.117 134.65C260.757 134.746 260.397 134.825 260.063 134.816L259.554 134.834C259.387 134.825 259.211 134.79 259.044 134.773C258.702 134.737 258.385 134.641 258.069 134.518C256.813 134.052 255.873 133.095 255.372 132.023C254.863 130.951 254.784 129.739 255.091 128.694C255.179 128.439 255.284 128.193 255.39 127.956C255.495 127.719 255.662 127.525 255.794 127.314C255.926 127.095 256.093 126.937 256.26 126.77L256.506 126.524L256.628 126.41L256.664 126.383L256.751 126.313L256.804 126.278L257.024 126.129L257.129 126.05L257.296 125.953C257.525 125.83 257.753 125.707 257.964 125.654C258.385 125.496 258.833 125.443 259.246 125.452C260.081 125.47 260.784 125.786 261.284 126.172C261.794 126.559 262.136 127.025 262.321 127.49C262.716 128.421 262.409 129.107 262.444 129.08C262.303 129.598 261.767 129.906 261.249 129.765C260.731 129.625 260.423 129.089 260.564 128.571C260.538 128.553 260.617 128.527 260.502 128.263C260.423 128.017 259.914 127.49 259.194 127.499C259.018 127.499 258.833 127.517 258.649 127.604C258.544 127.631 258.482 127.683 258.403 127.719L258.341 127.745L258.236 127.824L258.025 127.982C257.999 128 257.858 128.158 257.779 128.237C257.683 128.333 257.577 128.43 257.516 128.553C257.454 128.676 257.349 128.773 257.305 128.904C257.261 129.036 257.208 129.159 257.156 129.3C257.015 129.844 257.068 130.486 257.366 131.083C257.665 131.672 258.21 132.181 258.86 132.401C259.018 132.462 259.185 132.515 259.369 132.515C259.457 132.524 259.545 132.541 259.633 132.55L259.914 132.524C260.107 132.524 260.274 132.48 260.423 132.436C260.511 132.409 260.573 132.418 260.687 132.374L261.056 132.207L261.434 132.032L261.46 132.023C261.548 131.979 261.363 132.067 261.39 132.058L261.425 132.032L261.504 131.979L261.662 131.882C261.864 131.742 262.092 131.628 262.286 131.478C262.479 131.329 262.672 131.171 262.865 131.022L263.393 130.503C264.754 129.063 265.404 126.919 265.773 124.503C266.151 122.079 266.327 119.452 266.827 116.72C267.354 114.006 268.145 111.23 269.717 108.665C270.508 107.391 271.518 106.179 272.827 105.248C273.17 105.028 273.477 104.8 273.855 104.598L274.443 104.308C274.637 104.22 274.856 104.106 274.997 104.071L275.471 103.904L275.708 103.825L275.77 103.807L275.902 103.772L275.937 103.763L276.086 103.728C276.481 103.64 276.868 103.552 277.272 103.517C280.478 103.104 283.737 104.527 285.679 106.926C286.663 108.094 287.357 109.579 287.62 111.01C287.682 111.397 287.752 111.783 287.796 112.161C287.787 112.548 287.77 112.934 287.761 113.312C287.77 113.699 287.655 114.067 287.576 114.436C287.48 114.797 287.427 115.183 287.251 115.508C286.733 116.922 285.758 118.056 284.686 118.978C284.361 119.198 284.027 119.408 283.694 119.602L283.193 119.892L282.815 120.041C282.569 120.138 282.323 120.225 282.086 120.322L281.998 120.357C281.629 120.471 281.875 120.392 281.787 120.419L281.752 120.427L281.691 120.436L281.436 120.48L280.918 120.568C279.547 120.744 278.151 120.524 277.017 119.935L276.587 119.733C276.455 119.654 276.323 119.558 276.2 119.47C275.946 119.294 275.691 119.11 275.462 118.925C275.252 118.706 275.041 118.495 274.839 118.275C274.742 118.17 274.637 118.064 274.54 117.95L274.268 117.537C274.092 117.256 273.934 116.975 273.785 116.703C273.67 116.466 273.635 116.325 273.556 116.132L273.451 115.868L273.398 115.737L273.381 115.701L273.372 115.684C273.381 115.719 273.258 115.306 273.31 115.473L273.293 115.368C273.24 115.095 273.196 114.832 273.161 114.568C273.091 114.041 273.143 113.523 273.187 113.04C273.301 112.565 273.372 112.091 273.565 111.696C273.749 111.292 273.916 110.905 274.162 110.598C274.391 110.281 274.602 109.974 274.865 109.745C275.129 109.508 275.331 109.297 275.612 109.113C275.902 108.929 276.174 108.779 276.42 108.647C276.701 108.498 276.789 108.489 276.912 108.454C277.026 108.419 277.123 108.384 277.202 108.366C277.36 108.322 277.439 108.296 277.439 108.296C278.458 107.98 279.547 108.551 279.863 109.57C280.18 110.501 279.688 111.511 278.801 111.898Z" fill="url(#paint47_linear)"/>
<path d="M291.801 118.776C291.801 118.776 263.365 139.859 254.247 142.714C245.129 145.569 241.51 138.067 240.561 136.6C239.612 135.133 236.757 132.937 234.781 132.866C236.169 130.67 238.883 129.203 241.299 130.6C242.397 128.334 245.831 127.262 247.667 128.773C249.205 130.038 248.766 132.12 248.766 132.12C247.061 131.347 245.199 132.12 245.252 134.316C245.304 136.512 246.789 141.616 253.544 138.814C260.3 136.011 288.296 114.437 288.296 114.437L291.801 118.776Z" fill="url(#paint48_linear)"/>
<path d="M287.057 114.708C287.057 118.099 289.807 120.848 293.198 120.848C296.588 120.848 299.338 118.099 299.338 114.708C299.338 111.317 296.588 108.568 293.198 108.568C289.807 108.568 287.057 111.317 287.057 114.708Z" fill="url(#paint49_linear)"/>
<path d="M285.409 50.2912C285.479 51.3453 287.166 61.0522 288.334 62.5895C289.502 64.1268 290.381 64.197 292.436 63.9072C294.492 63.6173 299.394 63.099 300.193 61.711C300.992 60.3231 301.107 47.2781 300.887 45.4509C300.667 43.6237 297.812 41.8668 296.495 42.0865C295.177 42.3061 290.135 44.1684 288.334 46.1185C286.533 48.0687 285.259 48.0951 285.409 50.2912Z" fill="url(#paint50_linear)"/>
<path d="M281.885 67.9217C281.806 66.0945 279.847 60.6832 279.039 58.0479C278.23 55.4125 278.09 55.0436 279.039 53.1461C279.987 51.2399 282.263 49.8519 283.282 48.6836C284.309 47.5153 286.576 48.0248 287.164 48.2444C287.753 48.464 289.87 51.9778 290.019 52.786C290.169 53.5941 290.898 57.1606 291.047 57.9425C291.196 58.7155 289.58 60.0332 287.902 59.1547C286.224 58.2763 285.776 56.8093 285.776 56.8093C285.776 56.8093 287.683 60.692 286.945 63.0287C286.207 65.3654 281.885 67.9217 281.885 67.9217Z" fill="url(#paint51_linear)"/>
<path d="M73.6524 275.343L74.3117 279.568L129.288 276.217L127.985 267.827L73.6524 275.343Z" fill="url(#paint52_linear)"/>
<path d="M261.595 260.889L148.549 278.216C142.073 273.763 136.003 274.3 135.905 274.31C134.595 274.44 133.87 274.51 133.87 274.51L132.914 268.447L306.273 251.403C306.273 251.403 292.68 256.448 261.595 260.889Z" fill="url(#paint53_linear)"/>
<path d="M260.07 250.7L145.198 255.748C140.304 261.224 134.262 261.874 134.156 261.884C132.847 262.013 132.121 262.081 132.121 262.081L133.077 268.036L306.285 251.221C306.285 251.221 291.556 249.002 260.07 250.7Z" fill="url(#paint54_linear)"/>
<path d="M132.001 264.072C132.001 264.072 132.733 264 134.055 263.863C134.1 263.857 135.314 263.722 137.088 263.058C138.48 262.959 139.678 262.198 140.622 261.292C141.674 260.624 142.767 259.787 143.84 258.743L158.317 267.815L146.93 279.552C145.678 278.812 144.466 278.254 143.321 277.828C142.079 277.071 140.574 276.477 139.089 276.698C139.054 276.704 139.009 276.718 138.964 276.724C137.155 276.47 136.003 276.575 135.959 276.581C134.637 276.718 133.905 276.79 133.905 276.79L132.952 270.452L132.945 270.401L132.001 264.072Z" fill="url(#paint55_linear)"/>
<path d="M135.175 250.84C131.547 249.972 129.276 252.029 129.518 253.615C129.751 255.193 130.213 258.217 130.619 260.951C131.026 263.685 135.564 265.819 137.887 265.683C140.209 265.547 141.715 262.52 141.715 262.52L151.671 268.763L143.856 276.814C143.856 276.814 141.506 274.188 139.214 274.517C136.922 274.846 133.153 277.83 133.56 280.564C133.967 283.298 134.428 286.322 134.661 287.899C134.894 289.485 137.7 291.021 140.967 289.445C140.967 289.445 138.972 296.519 131.543 297.278L127.434 294.044C127.434 294.044 130.455 291.037 129.957 287.725C129.459 284.412 126.287 280.605 124.923 271.491C123.558 262.377 125.508 258.042 125.011 254.729C124.513 251.417 120.701 249.104 120.701 249.104L123.723 245.143C131.152 244.392 135.175 250.84 135.175 250.84Z" fill="url(#paint56_linear)"/>
<path d="M131.968 266.883C129.747 267.109 128.208 269.039 128.528 271.193C128.849 273.348 130.91 274.91 133.131 274.684C135.352 274.458 136.891 272.528 136.571 270.374C136.25 268.219 134.189 266.658 131.968 266.883Z" fill="url(#paint57_linear)"/>
<path d="M77.3526 275.714L77.7018 278.054L78.0509 280.395C73.766 280.836 71.6895 284.849 71.6895 284.849L61.982 279.662L69.8597 272.679C69.8686 272.68 73.0678 276.154 77.3526 275.714Z" fill="url(#paint58_linear)"/>
<path d="M129.588 131.091C129.588 131.091 119.047 134.579 111.036 145.779C103.024 156.979 91.0508 166.018 80.6588 176.121C70.2667 186.223 63.0898 193.839 62.7999 196.176C62.51 198.521 67.6313 217.548 77.4436 226.631C87.2559 235.706 100.723 255.471 101.601 259.723C102.479 263.974 102.479 272.17 103.209 276.264C103.938 280.366 106.722 282.123 108.33 282.703C109.937 283.291 115.507 281.385 118.432 282.703C121.357 284.021 123.993 285.189 125.17 284.899C126.338 284.609 127.076 282.114 127.076 280.797C127.076 279.479 124.59 269.377 124.59 268.059C124.59 266.741 126.496 265.274 124.441 263.518C122.385 261.761 114.628 258.396 110.974 252.388C107.311 246.388 98.0872 225.744 95.4519 217.539C92.8165 209.344 85.9382 199.681 85.9382 199.681C85.9382 199.681 91.7975 194.7 94.7227 192.504C97.648 190.308 110.386 181.672 116.095 176.981C121.805 172.299 125.205 166.15 129.799 163.805C134.394 161.459 140.56 162.443 143.767 160.73C156.346 154.019 147.693 125.531 129.588 131.091Z" fill="url(#paint59_linear)"/>
<defs>
<linearGradient id="paint0_linear" x1="236.895" y1="89.355" x2="267.966" y2="14.7853" gradientUnits="userSpaceOnUse">
<stop stop-color="#FBDAD0"/>
<stop offset="1" stop-color="#FBD0C4"/>
</linearGradient>
<linearGradient id="paint1_linear" x1="199.73" y1="150.954" x2="211.48" y2="136.789" gradientUnits="userSpaceOnUse">
<stop stop-color="#FBB8A6"/>
<stop offset="1" stop-color="#FBDAD0" stop-opacity="0.1"/>
</linearGradient>
<linearGradient id="paint2_linear" x1="241.036" y1="112.01" x2="236.534" y2="121.124" gradientUnits="userSpaceOnUse">
<stop stop-color="#FBB8A6"/>
<stop offset="1" stop-color="#FBDAD0" stop-opacity="0.1"/>
</linearGradient>
<linearGradient id="paint3_linear" x1="221.161" y1="289.289" x2="258.193" y2="200.411" gradientUnits="userSpaceOnUse">
<stop stop-color="#FBDAD0"/>
<stop offset="1" stop-color="#FBD0C4"/>
</linearGradient>
<linearGradient id="paint4_linear" x1="222.547" y1="276.5" x2="192.905" y2="303.113" gradientUnits="userSpaceOnUse">
<stop stop-color="#FBB8A6"/>
<stop offset="1" stop-color="#FBDAD0" stop-opacity="0.1"/>
</linearGradient>
<linearGradient id="paint5_linear" x1="195.096" y1="219.595" x2="130.869" y2="540.627" gradientUnits="userSpaceOnUse">
<stop stop-color="#DCCBBD"/>
<stop offset="1" stop-color="#C6AD98"/>
</linearGradient>
<linearGradient id="paint6_linear" x1="160.215" y1="206.656" x2="160.215" y2="378.885" gradientUnits="userSpaceOnUse">
<stop stop-color="#DAC3AF"/>
<stop offset="1" stop-color="#DCCBBD"/>
</linearGradient>
<linearGradient id="paint7_linear" x1="57.3056" y1="424.89" x2="162.645" y2="246.97" gradientUnits="userSpaceOnUse">
<stop stop-color="#C1A792"/>
<stop offset="1" stop-color="#D9C0AC"/>
</linearGradient>
<linearGradient id="paint8_linear" x1="-6.44824" y1="387.619" x2="178.534" y2="214.407" gradientUnits="userSpaceOnUse">
<stop stop-color="#C1A792"/>
<stop offset="1" stop-color="#DBCABD"/>
</linearGradient>
<linearGradient id="paint9_linear" x1="198.658" y1="203.751" x2="120.589" y2="211.687" gradientUnits="userSpaceOnUse">
<stop stop-color="#FFD441"/>
<stop offset="1" stop-color="#FF8229"/>
</linearGradient>
<linearGradient id="paint10_linear" x1="107.524" y1="38.0599" x2="-5.76378" y2="111.306" gradientUnits="userSpaceOnUse">
<stop stop-color="#7F614E"/>
<stop offset="1" stop-color="#C1A893"/>
</linearGradient>
<linearGradient id="paint11_linear" x1="121.533" y1="65.3133" x2="-60.038" y2="67.1896" gradientUnits="userSpaceOnUse">
<stop stop-color="#896B57"/>
<stop offset="1" stop-color="#CEB9A8"/>
</linearGradient>
<linearGradient id="paint12_linear" x1="129.082" y1="215.598" x2="-60.0458" y2="217.131" gradientUnits="userSpaceOnUse">
<stop stop-color="#896B57"/>
<stop offset="1" stop-color="#CEB9A8"/>
</linearGradient>
<linearGradient id="paint13_linear" x1="121.894" y1="105.002" x2="-25.3388" y2="168.266" gradientUnits="userSpaceOnUse">
<stop stop-color="#7F614E"/>
<stop offset="1" stop-color="#C1A893"/>
</linearGradient>
<linearGradient id="paint14_linear" x1="141.358" y1="172.92" x2="141.358" y2="202.038" gradientUnits="userSpaceOnUse">
<stop stop-color="#DBC9BB"/>
<stop offset="1" stop-color="#C1A792"/>
</linearGradient>
<linearGradient id="paint15_linear" x1="145.298" y1="193.79" x2="189.22" y2="88.3758" gradientUnits="userSpaceOnUse">
<stop stop-color="#FBDAD0"/>
<stop offset="1" stop-color="#FBD0C4"/>
</linearGradient>
<linearGradient id="paint16_linear" x1="120.907" y1="159.795" x2="143.601" y2="175.752" gradientUnits="userSpaceOnUse">
<stop stop-color="#FBB8A6"/>
<stop offset="1" stop-color="#FBDAD0" stop-opacity="0.1"/>
</linearGradient>
<linearGradient id="paint17_linear" x1="150.878" y1="124.368" x2="174.222" y2="143.199" gradientUnits="userSpaceOnUse">
<stop stop-color="#D4C1B1"/>
<stop offset="1" stop-color="#E4D2C3"/>
</linearGradient>
<linearGradient id="paint18_linear" x1="151.533" y1="105.14" x2="131.109" y2="136.325" gradientUnits="userSpaceOnUse">
<stop stop-color="#FBB8A6"/>
<stop offset="1" stop-color="#FBDAD0" stop-opacity="0.1"/>
</linearGradient>
<linearGradient id="paint19_linear" x1="178.528" y1="122.561" x2="178.528" y2="141.439" gradientUnits="userSpaceOnUse">
<stop stop-color="#D4C1B1"/>
<stop offset="1" stop-color="#E1CFC0"/>
</linearGradient>
<linearGradient id="paint20_linear" x1="144.888" y1="162.231" x2="159.913" y2="172.797" gradientUnits="userSpaceOnUse">
<stop stop-color="#FBB8A6"/>
<stop offset="1" stop-color="#FBDAD0" stop-opacity="0.1"/>
</linearGradient>
<linearGradient id="paint21_linear" x1="164.758" y1="96.0892" x2="177.111" y2="113.054" gradientUnits="userSpaceOnUse">
<stop stop-color="#FBB8A6"/>
<stop offset="1" stop-color="#FBDAD0" stop-opacity="0.1"/>
</linearGradient>
<linearGradient id="paint22_linear" x1="138.478" y1="54.077" x2="117.584" y2="58.6637" gradientUnits="userSpaceOnUse">
<stop stop-color="#7F614E"/>
<stop offset="1" stop-color="#C1A893"/>
</linearGradient>
<linearGradient id="paint23_linear" x1="136.222" y1="64.7831" x2="111.369" y2="58.5516" gradientUnits="userSpaceOnUse">
<stop stop-color="#FFD441"/>
<stop offset="1" stop-color="#FF8229"/>
</linearGradient>
<linearGradient id="paint24_linear" x1="175.521" y1="95.2146" x2="175.521" y2="58.3204" gradientUnits="userSpaceOnUse">
<stop stop-color="#FBDAD0"/>
<stop offset="1" stop-color="#FBD0C4"/>
</linearGradient>
<radialGradient id="paint25_radial" cx="0" cy="0" r="1" gradientUnits="userSpaceOnUse" gradientTransform="translate(179.028 85.7195) rotate(172.074) scale(9.228 4.69165)">
<stop stop-color="#FA8787"/>
<stop offset="1" stop-color="#FACDAB" stop-opacity="0"/>
</radialGradient>
<linearGradient id="paint26_linear" x1="175.465" y1="48.9429" x2="139.261" y2="59.3808" gradientUnits="userSpaceOnUse">
<stop stop-color="#7F614E"/>
<stop offset="1" stop-color="#C1A893"/>
</linearGradient>
<linearGradient id="paint27_linear" x1="136.949" y1="111.813" x2="-59.9987" y2="115.344" gradientUnits="userSpaceOnUse">
<stop stop-color="#896B57"/>
<stop offset="1" stop-color="#CEB9A8"/>
</linearGradient>
<linearGradient id="paint28_linear" x1="205.607" y1="77.2886" x2="139.5" y2="87.0968" gradientUnits="userSpaceOnUse">
<stop stop-color="#DAC9BA"/>
<stop offset="1" stop-color="#A18673"/>
</linearGradient>
<linearGradient id="paint29_linear" x1="172.708" y1="35.3882" x2="182.359" y2="72.4923" gradientUnits="userSpaceOnUse">
<stop stop-color="#FFD441"/>
<stop offset="1" stop-color="#FF8229"/>
</linearGradient>
<linearGradient id="paint30_linear" x1="167.928" y1="43.5581" x2="176.655" y2="77.109" gradientUnits="userSpaceOnUse">
<stop stop-color="#FFD441"/>
<stop offset="1" stop-color="#FF8229"/>
</linearGradient>
<linearGradient id="paint31_linear" x1="163.157" y1="51.7287" x2="170.965" y2="81.7391" gradientUnits="userSpaceOnUse">
<stop stop-color="#FFD441"/>
<stop offset="1" stop-color="#FF8229"/>
</linearGradient>
<linearGradient id="paint32_linear" x1="158.374" y1="59.9091" x2="165.259" y2="86.3811" gradientUnits="userSpaceOnUse">
<stop stop-color="#FFD441"/>
<stop offset="1" stop-color="#FF8229"/>
</linearGradient>
<linearGradient id="paint33_linear" x1="153.595" y1="68.079" x2="159.556" y2="90.9978" gradientUnits="userSpaceOnUse">
<stop stop-color="#FFD441"/>
<stop offset="1" stop-color="#FF8229"/>
</linearGradient>
<linearGradient id="paint34_linear" x1="189.866" y1="70.1334" x2="119.09" y2="62.8412" gradientUnits="userSpaceOnUse">
<stop stop-color="#FFD441"/>
<stop offset="1" stop-color="#FF8229"/>
</linearGradient>
<linearGradient id="paint35_linear" x1="157" y1="91.0571" x2="157" y2="80.5052" gradientUnits="userSpaceOnUse">
<stop stop-color="#FBDAD0"/>
<stop offset="1" stop-color="#FBD0C4"/>
</linearGradient>
<linearGradient id="paint36_linear" x1="180.384" y1="141.25" x2="180.384" y2="204.59" gradientUnits="userSpaceOnUse">
<stop stop-color="#DCCBBD"/>
<stop offset="1" stop-color="#D4C1B1"/>
</linearGradient>
<linearGradient id="paint37_linear" x1="162.451" y1="134.372" x2="157.939" y2="240.496" gradientUnits="userSpaceOnUse">
<stop stop-color="#DCCBBD"/>
<stop offset="1" stop-color="#CCB6A5"/>
</linearGradient>
<linearGradient id="paint38_linear" x1="185.501" y1="142.705" x2="169.062" y2="136.835" gradientUnits="userSpaceOnUse">
<stop stop-color="#FFD441"/>
<stop offset="1" stop-color="#FF8229"/>
</linearGradient>
<linearGradient id="paint39_linear" x1="285.172" y1="70.3795" x2="293.443" y2="54.7872" gradientUnits="userSpaceOnUse">
<stop stop-color="#FBDAD0"/>
<stop offset="1" stop-color="#FBA58D"/>
</linearGradient>
<linearGradient id="paint40_linear" x1="293.19" y1="47.9072" x2="293.024" y2="231.633" gradientUnits="userSpaceOnUse">
<stop stop-color="#FFD441"/>
<stop offset="1" stop-color="#FF8229"/>
</linearGradient>
<linearGradient id="paint41_linear" x1="343.114" y1="132.392" x2="343.114" y2="187.523" gradientUnits="userSpaceOnUse">
<stop stop-color="#8A6C58"/>
<stop offset="1" stop-color="#AE937F"/>
</linearGradient>
<linearGradient id="paint42_linear" x1="347.406" y1="192.47" x2="323.85" y2="177.308" gradientUnits="userSpaceOnUse">
<stop stop-color="#FFD441"/>
<stop offset="1" stop-color="#FF8229"/>
</linearGradient>
<linearGradient id="paint43_linear" x1="332.922" y1="120.001" x2="297.987" y2="118.069" gradientUnits="userSpaceOnUse">
<stop stop-color="#FFD441"/>
<stop offset="1" stop-color="#FFB939"/>
</linearGradient>
<linearGradient id="paint44_linear" x1="342.644" y1="138.525" x2="303.114" y2="113.49" gradientUnits="userSpaceOnUse">
<stop stop-color="#FFD441"/>
<stop offset="1" stop-color="#FFB939"/>
</linearGradient>
<linearGradient id="paint45_linear" x1="243.265" y1="132.391" x2="243.265" y2="187.523" gradientUnits="userSpaceOnUse">
<stop stop-color="#8A6C58"/>
<stop offset="1" stop-color="#AE937F"/>
</linearGradient>
<linearGradient id="paint46_linear" x1="238.976" y1="192.47" x2="262.531" y2="177.308" gradientUnits="userSpaceOnUse">
<stop stop-color="#FFD441"/>
<stop offset="1" stop-color="#FF8229"/>
</linearGradient>
<linearGradient id="paint47_linear" x1="253.458" y1="120.001" x2="288.393" y2="118.069" gradientUnits="userSpaceOnUse">
<stop stop-color="#FFD441"/>
<stop offset="1" stop-color="#FFB939"/>
</linearGradient>
<linearGradient id="paint48_linear" x1="243.737" y1="138.525" x2="365.517" y2="69.0617" gradientUnits="userSpaceOnUse">
<stop stop-color="#FFD441"/>
<stop offset="1" stop-color="#FF8229"/>
</linearGradient>
<linearGradient id="paint49_linear" x1="293.19" y1="112.914" x2="293.19" y2="125.186" gradientUnits="userSpaceOnUse">
<stop stop-color="#FFD441"/>
<stop offset="1" stop-color="#FF8229"/>
</linearGradient>
<linearGradient id="paint50_linear" x1="296.785" y1="52.6206" x2="278.192" y2="56.4276" gradientUnits="userSpaceOnUse">
<stop stop-color="#FBDAD0"/>
<stop offset="1" stop-color="#FBA58D"/>
</linearGradient>
<linearGradient id="paint51_linear" x1="285.11" y1="55.4622" x2="290.922" y2="41.5121" gradientUnits="userSpaceOnUse">
<stop stop-color="#FBDAD0"/>
<stop offset="1" stop-color="#FBD0C4"/>
</linearGradient>
<linearGradient id="paint52_linear" x1="126.087" y1="272.15" x2="81.0158" y2="278.554" gradientUnits="userSpaceOnUse">
<stop stop-color="#896B57"/>
<stop offset="1" stop-color="#A28672"/>
</linearGradient>
<linearGradient id="paint53_linear" x1="211.961" y1="286.215" x2="72.4123" y2="284.843" gradientUnits="userSpaceOnUse">
<stop stop-color="#FFD441"/>
<stop offset="1" stop-color="#FF8229"/>
</linearGradient>
<linearGradient id="paint54_linear" x1="242.169" y1="222.719" x2="134.587" y2="318.251" gradientUnits="userSpaceOnUse">
<stop stop-color="#FFD441"/>
<stop offset="1" stop-color="#FF8229"/>
</linearGradient>
<linearGradient id="paint55_linear" x1="149.342" y1="268.748" x2="124.153" y2="272.522" gradientUnits="userSpaceOnUse">
<stop stop-color="#FFD441"/>
<stop offset="1" stop-color="#FF8229"/>
</linearGradient>
<linearGradient id="paint56_linear" x1="145.221" y1="269.141" x2="91.8184" y2="273.251" gradientUnits="userSpaceOnUse">
<stop stop-color="#FFD441"/>
<stop offset="1" stop-color="#FF8229"/>
</linearGradient>
<linearGradient id="paint57_linear" x1="129.023" y1="271.146" x2="135.887" y2="270.12" gradientUnits="userSpaceOnUse">
<stop stop-color="white"/>
<stop offset="0.4474" stop-color="#EDFCFF"/>
<stop offset="1" stop-color="#DBF8FF"/>
</linearGradient>
<linearGradient id="paint58_linear" x1="79.353" y1="277.885" x2="34.8583" y2="283.421" gradientUnits="userSpaceOnUse">
<stop stop-color="#FFD441"/>
<stop offset="1" stop-color="#FF8229"/>
</linearGradient>
<linearGradient id="paint59_linear" x1="118.171" y1="183.231" x2="161.78" y2="78.5701" gradientUnits="userSpaceOnUse">
<stop stop-color="#FBDAD0"/>
<stop offset="1" stop-color="#FBD0C4"/>
</linearGradient>
</defs>
</svg>
