<svg width="20" height="20" viewBox="0 0 20 20" fill="none" xmlns="http://www.w3.org/2000/svg">
<path d="M20 3.30092C20 3.45691 20 3.6129 20 3.76928C19.9324 3.92605 19.8327 4.0621 19.7295 4.1962C19.1149 4.99452 18.5034 5.79557 17.8838 6.59037C17.7825 6.72017 17.7767 6.80735 17.8799 6.94301C18.5175 7.7812 19.145 8.62722 19.776 9.4701C19.8659 9.59012 19.9484 9.71445 20 9.85636C20 10.0123 20 10.1683 20 10.3247C19.8651 10.6121 19.6466 10.7915 19.3397 10.8853C18.6188 11.1054 17.9022 11.3392 17.1844 11.5687C15.8165 12.0058 14.4493 12.4444 13.081 12.8807C12.572 13.043 12.2827 12.9472 11.9652 12.5136C11.7428 12.2095 11.5234 11.9026 11.3022 11.5973C11.1516 11.3893 11 11.1813 10.8455 10.969C10.7885 11.0312 10.8068 11.0859 10.8068 11.1348C10.8057 13.1638 10.8072 15.1924 10.8033 17.2215C10.8029 17.3876 10.8416 17.4459 11.0148 17.3958C12.3569 17.0084 13.7022 16.6327 15.042 16.2382C15.5197 16.0975 15.8387 15.764 16.017 15.298C16.0925 15.1006 16.0983 14.8914 16.1202 14.6854C16.1605 14.3061 16.4795 13.9996 16.8607 13.9785C17.2602 13.9562 17.6371 14.2366 17.7 14.6189C17.7309 14.8046 17.7282 14.9966 17.6961 15.1827C17.4639 16.5439 16.6941 17.4373 15.3645 17.8294C14.162 18.184 12.9563 18.5284 11.7514 18.8759C10.7654 19.1602 9.76339 19.2368 8.76764 18.9737C7.36726 18.6038 5.97705 18.1953 4.58566 17.7922C3.19075 17.388 2.31346 16.0642 2.34356 14.7323C2.36663 13.7053 2.34474 12.6775 2.35138 11.65C2.35256 11.4804 2.30252 11.394 2.13363 11.3435C1.64181 11.1969 1.15469 11.0343 0.666784 10.8748C-0.0130768 10.6523 -0.198387 10.055 0.23674 9.47988C0.88376 8.62409 1.53235 7.76947 2.18679 6.91955C2.28297 6.79445 2.29196 6.71274 2.18797 6.5849C1.52726 5.7729 0.870077 4.95816 0.222275 4.1356C-0.203078 3.5957 0.00256117 2.96823 0.664047 2.77823C2.83694 2.15427 5.01218 1.53774 7.18586 0.915353C7.61082 0.793768 7.9486 0.908316 8.2254 1.24805C8.77585 1.92322 9.33647 2.59057 9.88145 3.27004C10.0003 3.4186 10.0546 3.40531 10.1625 3.26691C10.6743 2.61051 11.1939 1.96036 11.7119 1.30904C12.068 0.861011 12.3143 0.783603 12.8703 0.937637C15.0052 1.52914 17.1394 2.1226 19.2756 2.70942C19.6114 2.80129 19.8667 2.97175 20 3.30092ZM9.21606 10.9651C9.20199 10.9624 9.18791 10.9596 9.17345 10.9569C8.78641 11.4784 8.40015 12.0007 8.01272 12.5219C7.69058 12.9554 7.39189 13.0461 6.87467 12.878C5.96024 12.5809 5.04385 12.2888 4.12981 11.9909C4.0008 11.9487 3.93707 11.9573 3.93786 12.1176C3.94216 12.9757 3.92925 13.8343 3.94294 14.6924C3.95623 15.5114 4.39018 16.0611 5.17873 16.2883C6.42703 16.6479 7.67689 17.0037 8.92637 17.3591C9.20394 17.438 9.21606 17.4267 9.21606 17.1448C9.21645 15.2069 9.21606 13.2693 9.21606 11.3314C9.21606 11.2094 9.21606 11.0871 9.21606 10.9651ZM16.3857 7.80661C16.3728 7.81013 16.3286 7.82069 16.2852 7.8332C14.7734 8.26402 13.2616 8.69602 11.749 9.12333C11.5981 9.16594 11.5551 9.20347 11.6638 9.35008C12.0864 9.91891 12.4996 10.4944 12.9105 11.0718C12.9891 11.1821 13.0704 11.202 13.192 11.159C13.4188 11.0792 13.6486 11.0085 13.8773 10.935C15.1518 10.5257 16.4259 10.1167 17.7008 9.70819C17.8005 9.67613 17.899 9.65776 17.7931 9.51741C17.39 8.98298 16.9924 8.44386 16.5929 7.9067C16.5491 7.84805 16.5014 7.79449 16.3857 7.80661ZM3.69781 7.81052C3.54143 7.78746 3.48905 7.86799 3.43431 7.93993C3.04493 8.45168 2.65632 8.96382 2.26811 9.47636C2.14183 9.64329 2.14535 9.65619 2.34435 9.72031C3.82057 10.1961 5.29797 10.6691 6.77302 11.1492C6.92041 11.1973 7.0072 11.177 7.09946 11.048C7.508 10.478 7.92202 9.91148 8.34463 9.35164C8.45996 9.19878 8.4197 9.16282 8.25706 9.11668C6.94582 8.74567 5.63653 8.36723 4.32685 7.99114C4.10244 7.92703 3.87804 7.86252 3.69781 7.81052ZM16.3825 5.73927C16.5147 5.75452 16.5573 5.67477 16.6085 5.6087C16.9776 5.13018 17.3466 4.65126 17.7145 4.17235C17.849 3.9976 17.8474 3.9933 17.6234 3.93113C16.0659 3.49796 14.5079 3.06714 12.9512 2.63045C12.819 2.59331 12.7354 2.61676 12.6502 2.72545C12.278 3.20162 11.9019 3.67467 11.5195 4.14264C11.4058 4.28142 11.4402 4.32052 11.5981 4.36548C13.1342 4.80334 14.6682 5.24785 16.2031 5.69001C16.2715 5.70956 16.3407 5.72755 16.3825 5.73927ZM7.1624 2.60816C7.11236 2.62185 7.06232 2.63553 7.01228 2.6496C6.24993 2.86463 5.48758 3.07887 4.72562 3.29506C3.9574 3.51282 3.18958 3.73097 2.42215 3.95185C2.22002 4.01011 2.21025 4.03904 2.33379 4.19385C2.70637 4.66104 3.08285 5.12548 3.45581 5.59267C3.53909 5.69705 3.62236 5.75374 3.77092 5.71034C5.32807 5.25372 6.88718 4.80256 8.44628 4.35297C8.56865 4.31778 8.62104 4.28221 8.52095 4.1614C8.11515 3.67076 7.71364 3.17699 7.31096 2.68362C7.27226 2.63553 7.23121 2.59683 7.1624 2.60816ZM14.0384 6.79445C14.0357 6.77998 14.0333 6.76591 14.0306 6.75144C13.9946 6.73776 13.9594 6.72134 13.9227 6.71078C12.6693 6.34915 11.4155 5.98831 10.1625 5.62512C10.0511 5.59306 9.94831 5.6001 9.83923 5.63215C8.60579 5.993 7.37156 6.3515 6.13773 6.71117C6.09707 6.7229 6.04585 6.72173 6.02943 6.7835C6.05328 6.79405 6.07557 6.80696 6.0998 6.81399C7.33442 7.17093 8.56904 7.52748 9.80366 7.8848C9.9659 7.93172 10.1223 7.91295 10.2814 7.86682C11.0918 7.63186 11.9027 7.39885 12.7139 7.16702C13.1549 7.04113 13.597 6.91877 14.0384 6.79445Z" fill="black"/>
</svg>
