<svg width="20" height="20" viewBox="0 0 20 20" fill="none" xmlns="http://www.w3.org/2000/svg">
<path d="M0 17.6976C0.47033 16.1693 1.42233 15.0477 2.85248 14.3345C2.99049 14.2657 3.01981 14.2215 2.9162 14.0851C1.83675 12.6624 2.27268 10.5363 3.81816 9.64765C3.99878 9.54366 4.18019 9.44279 4.37958 9.37867C4.46051 9.35248 4.51759 9.32198 4.49687 9.21486C4.38623 8.63779 4.58445 8.12641 4.84327 7.6291C5.42698 6.50743 6.28905 5.67115 7.42637 5.12068C7.56399 5.05421 7.61364 5.00847 7.50456 4.85443C6.15026 2.94379 7.28679 0.316504 9.6146 0.0252357C11.3587 -0.193313 12.7705 1.03705 13.0105 2.57706C13.1376 3.393 12.9683 4.13857 12.5003 4.81729C12.3588 5.02254 12.3584 5.02293 12.5758 5.13045C13.8659 5.76772 14.7812 6.75373 15.3403 8.07871C15.4916 8.43723 15.5275 8.80669 15.4978 9.18592C15.4884 9.30634 15.524 9.35326 15.6362 9.39587C17.5828 10.1313 18.2698 12.4239 17.0449 14.1027C16.9491 14.2337 16.996 14.2708 17.1094 14.3259C18.0368 14.7787 18.7823 15.439 19.3422 16.3058C19.5897 16.6893 19.8008 17.0944 19.9235 17.535C20.2262 18.6187 19.5822 19.7036 18.4907 19.9691C18.4531 19.9781 18.416 19.9894 18.3788 20C18.1838 20 17.9887 20 17.7936 20C17.7412 19.9742 17.6864 19.9527 17.6368 19.9222C17.3268 19.7334 17.2005 19.4542 17.2376 19.0977C17.2677 18.8076 17.5109 18.5311 17.8112 18.4498C17.8921 18.4279 17.9777 18.4252 18.0598 18.4072C18.3417 18.345 18.4453 18.1601 18.3464 17.8868C18.206 17.4986 18.0082 17.1378 17.7384 16.8269C16.6492 15.5715 15.2711 15.1051 13.6595 15.4609C12.3162 15.7576 11.3696 16.5822 10.8469 17.8673C10.7312 18.1523 10.8461 18.3482 11.1487 18.408C11.2305 18.424 11.3165 18.4252 11.4005 18.4252C12.3166 18.4264 13.2326 18.4232 14.1486 18.4275C14.5838 18.4295 14.9176 18.7778 14.9215 19.213C14.9251 19.6133 14.696 19.844 14.3597 20C13.1763 20 11.9924 20 10.809 20C10.5607 19.9281 10.3156 19.8479 10.0986 19.7017C10.0314 19.6563 9.96646 19.6548 9.90078 19.7001C9.67911 19.853 9.42498 19.9269 9.17046 20C8.97537 20 8.78028 20 8.58519 20C8.51677 19.9629 8.44444 19.9316 8.38071 19.8878C8.0871 19.6868 7.97333 19.4003 8.03432 19.0582C8.09218 18.7356 8.30056 18.5311 8.61568 18.4416C8.68997 18.4205 8.76972 18.4205 8.84557 18.4041C9.12159 18.3435 9.22559 18.1683 9.13762 17.9005C9.09735 17.7774 9.04457 17.6573 8.98749 17.5412C8.1434 15.8253 6.11898 14.9566 4.23571 15.5137C3.00104 15.8788 2.12997 16.6608 1.64205 17.8567C1.5275 18.1374 1.64205 18.3388 1.93997 18.4037C2.02129 18.4213 2.1073 18.424 2.19096 18.4244C3.08119 18.4252 3.97142 18.4221 4.86164 18.4244C5.28858 18.4256 5.62207 18.7653 5.63302 19.1915C5.64318 19.5997 5.41838 19.8401 5.07315 19.9996C3.91551 19.9996 2.75786 19.9996 1.60022 19.9996C0.751434 19.7818 0.199392 19.2669 0 18.4002C0 18.166 0 17.9318 0 17.6976ZM8.17976 9.29539C8.69348 9.29539 9.20682 9.29266 9.72055 9.29618C10.1811 9.2993 10.5079 9.62811 10.5091 10.082C10.5103 10.5422 10.1772 10.8788 9.71077 10.8819C9.24905 10.8851 8.78732 10.8886 8.32598 10.88C8.15044 10.8768 8.13597 10.9202 8.19931 11.077C8.63015 12.1424 8.50856 13.1499 7.84666 14.0871C7.75752 14.2129 7.76143 14.2599 7.901 14.3255C8.68606 14.6958 9.3331 15.2392 9.86208 15.9242C9.95161 16.0399 10.0071 16.0642 10.1076 15.9328C10.6378 15.2396 11.2938 14.6966 12.0831 14.3216C12.218 14.2575 12.2137 14.2079 12.1312 14.0957C11.1249 12.7253 11.4017 10.8534 12.7576 9.82593C12.9867 9.65234 13.24 9.52137 13.4977 9.39626C13.8468 9.22619 14.004 9.04713 13.8143 8.60495C13.1673 7.09739 11.6582 6.12311 9.93753 6.13445C9.10791 6.13992 8.33419 6.37254 7.63984 6.8374C6.94548 7.30187 6.4298 7.9149 6.1268 8.69839C6.0275 8.95486 6.1182 9.17498 6.35043 9.252C6.4556 9.28679 6.56507 9.29735 6.67689 9.29696C7.1785 9.29344 7.67893 9.295 8.17976 9.29539ZM11.4326 3.06733C11.4341 2.26898 10.7894 1.60434 9.99305 1.61099C9.16421 1.61763 8.53866 2.24748 8.53358 3.07241C8.5285 3.86646 9.20604 4.52524 9.99031 4.52211C10.7894 4.51937 11.431 3.87193 11.4326 3.06733ZM16.037 12.2745C16.0374 11.4742 15.3927 10.8116 14.5959 10.8198C13.7635 10.8284 13.1415 11.4609 13.138 12.2828C13.1348 13.0756 13.8167 13.7367 14.5959 13.7309C15.3974 13.725 16.0366 13.0791 16.037 12.2745ZM6.82819 12.2718C6.82702 11.4445 6.2003 10.8307 5.36051 10.8334C4.57155 10.8358 3.93467 11.4715 3.93349 12.257C3.93232 13.0725 4.58249 13.7328 5.38514 13.7309C6.17802 13.7293 6.82937 13.0709 6.82819 12.2718Z" fill="black"/>
</svg>
