<svg width="20" height="20" viewBox="0 0 20 20" fill="none" xmlns="http://www.w3.org/2000/svg">
<path d="M2.668 19.9992C1.95465 19.8565 1.32265 19.5581 0.828308 19.0117C0.298379 18.4259 0.00193132 17.7399 0.00193132 16.9421C-2.41415e-05 12.317 -0.00119742 7.69156 0.00193132 3.0665C0.00310459 1.40593 1.40517 0.00425527 3.06535 0.0026909C6.30477 -0.00122001 9.54457 -0.00043783 12.7844 0.00229981C14.3057 0.00347309 15.6217 1.15094 15.8376 2.65742C15.9166 3.2073 15.8717 3.76147 15.874 4.31331C15.8807 5.91991 15.876 7.52691 15.8732 9.13351C15.8724 9.51835 15.6456 9.81831 15.2917 9.91922C14.9499 10.0166 14.5908 9.87698 14.3933 9.56802C14.2756 9.38459 14.2592 9.17614 14.2592 8.96769C14.2588 7.06151 14.2557 5.15572 14.2647 3.24954C14.267 2.72039 14.0953 2.28315 13.6909 1.94172C13.3761 1.67578 12.996 1.59209 12.5998 1.59131C9.9912 1.587 7.38262 1.58974 4.77403 1.58974C4.27305 1.58974 3.77206 1.58309 3.27146 1.59052C2.60426 1.59991 2.07354 1.85373 1.75832 2.47244C1.62809 2.72821 1.59172 3.00667 1.59133 3.2863C1.58859 7.05916 1.59016 10.8324 1.59055 14.6053C1.59055 15.3077 1.58742 16.0105 1.58937 16.7129C1.59094 17.2827 1.77084 17.7684 2.24836 18.12C2.56906 18.3566 2.93512 18.4219 3.31643 18.4231C4.89058 18.427 6.46512 18.4247 8.03926 18.4247C8.54924 18.4247 8.84726 18.6194 8.94777 19.0172C9.0518 19.4294 8.86603 19.7661 8.4061 19.9992C6.49327 19.9992 4.58083 19.9992 2.668 19.9992Z" fill="black"/>
<path d="M11.0991 19.9993C10.5766 19.7349 10.4374 19.4165 10.6075 18.8491C10.8961 17.8846 11.1899 16.9214 11.4793 15.9573C11.5313 15.7837 11.6275 15.6437 11.7546 15.517C13.1543 14.1211 14.5497 12.7214 15.9518 11.3284C16.6116 10.6729 17.4106 10.4613 18.3003 10.7065C19.1982 10.9537 19.7415 11.5712 19.9675 12.4711C19.9769 12.5087 19.9883 12.5458 19.9984 12.5834C19.9984 12.8434 19.9984 13.1039 19.9984 13.364C19.8846 13.8771 19.6601 14.3272 19.2827 14.7027C17.8986 16.0786 16.5193 17.4591 15.1399 18.8401C14.9784 19.0016 14.7902 19.1001 14.5708 19.1608C13.5689 19.4369 12.5685 19.7196 11.5677 20C11.4116 19.9993 11.2556 19.9993 11.0991 19.9993ZM12.6404 18.0133C12.6666 18.007 12.6858 18.0027 12.7046 17.9976C13.1305 17.8815 13.5556 17.7642 13.9819 17.6504C14.0487 17.6324 14.0976 17.5944 14.1438 17.5483C15.0308 16.6621 15.917 15.7751 16.8071 14.8916C16.8998 14.7997 16.8928 14.7414 16.8032 14.6546C16.5279 14.3883 16.2549 14.1196 15.9917 13.8411C15.8822 13.725 15.8157 13.741 15.7113 13.8462C14.8411 14.7219 13.9658 15.592 13.0933 16.465C13.0479 16.5103 12.9936 16.5596 12.9752 16.6171C12.8375 17.05 12.7081 17.4853 12.5763 17.9202C12.5571 17.9828 12.5681 18.025 12.6404 18.0133ZM18.4125 13.0116C18.4118 12.6733 18.2084 12.3867 17.9139 12.2705C17.6335 12.1598 17.2944 12.2502 17.0801 12.4793C16.9984 12.5669 17.0269 12.6197 17.0973 12.6878C17.3351 12.9166 17.5764 13.1415 17.8001 13.3851C18.0594 13.6679 18.1939 13.6374 18.3437 13.2736C18.3828 13.1794 18.3965 13.075 18.4125 13.0116Z" fill="black"/>
<path d="M5.14876 16.4622C4.74789 16.4665 4.41976 16.3062 4.1456 16.0394C3.86637 15.7676 3.59808 15.4837 3.33448 15.1962C3.03256 14.8669 3.04507 14.3941 3.35169 14.0875C3.66495 13.7746 4.14365 13.7684 4.47451 14.0805C4.64933 14.2455 4.82219 14.4141 4.98176 14.5936C5.10417 14.7312 5.17965 14.7031 5.28525 14.5732C5.74869 14.0034 6.22191 13.4414 6.68731 12.8736C6.89263 12.6233 7.12025 12.4203 7.47106 12.4387C7.78667 12.4555 8.01468 12.6197 8.14804 12.8943C8.29 13.1864 8.25676 13.4805 8.05652 13.739C7.83751 14.0218 7.60599 14.294 7.37876 14.5701C7.01935 15.0066 6.65837 15.4422 6.29896 15.8787C5.99899 16.2432 5.62941 16.4689 5.14876 16.4622Z" fill="black"/>
<path d="M5.12135 6.94494C4.72048 6.93634 4.39235 6.76856 4.11781 6.48854C3.85382 6.21947 3.58201 5.95665 3.33523 5.67233C3.02588 5.31565 3.04934 4.8526 3.36652 4.5499C3.68174 4.24915 4.14753 4.25384 4.49013 4.57141C4.67589 4.74349 4.85228 4.92691 5.02318 5.11385C5.11353 5.2128 5.16476 5.2038 5.24728 5.10251C5.73223 4.50805 6.22462 3.91946 6.71192 3.32695C6.90042 3.09777 7.10927 2.92178 7.43153 2.92687C7.75027 2.93156 7.98414 3.07392 8.13119 3.34377C8.28293 3.62223 8.27902 3.91789 8.08622 4.17288C7.80033 4.55146 7.49097 4.91205 7.19022 5.27889C6.89769 5.63596 6.60046 5.98951 6.31066 6.34853C6.00365 6.72945 5.62038 6.9512 5.12135 6.94494Z" fill="black"/>
<path d="M5.14476 11.7397C4.74116 11.7542 4.41577 11.5774 4.13809 11.3048C3.86941 11.0408 3.60855 10.7683 3.35161 10.4929C3.03209 10.1507 3.03639 9.66616 3.35317 9.35485C3.67035 9.04354 4.15374 9.04901 4.49086 9.37284C4.66411 9.53944 4.83932 9.70566 4.99654 9.88673C5.11152 10.0193 5.17566 9.99155 5.27421 9.86992C5.7404 9.29462 6.21596 8.72675 6.68527 8.15341C6.88982 7.90351 7.11196 7.70913 7.46941 7.72517C8.00756 7.74942 8.37636 8.29147 8.18198 8.79441C8.12958 8.93012 8.04236 9.04315 7.95124 9.15344C7.39315 9.83002 6.83584 10.5074 6.2758 11.1824C5.98287 11.5348 5.61603 11.7436 5.14476 11.7397Z" fill="black"/>
<path d="M10.8086 11.4254C10.4187 11.4254 10.0291 11.4285 9.63921 11.4242C9.18398 11.4195 8.86016 11.0859 8.86133 10.6291C8.8625 10.1797 9.19493 9.84027 9.64703 9.83831C10.4198 9.83479 11.193 9.83518 11.9658 9.83831C12.4167 9.84027 12.7527 10.1817 12.7539 10.6283C12.755 11.0945 12.4289 11.4226 11.958 11.4269C11.7632 11.4285 11.5681 11.4258 11.3733 11.4254C11.1852 11.4254 10.9967 11.4254 10.8086 11.4254Z" fill="black"/>
<path d="M10.8066 6.62661C10.423 6.62661 10.0393 6.62935 9.65604 6.62583C9.19337 6.62153 8.85938 6.2805 8.86134 5.82136C8.86368 5.37395 9.19846 5.03917 9.65525 5.03761C10.4226 5.03487 11.1895 5.0337 11.9568 5.038C12.4246 5.04074 12.7539 5.37864 12.7515 5.84013C12.7492 6.28754 12.4144 6.61879 11.9576 6.62466C11.9447 6.62466 11.9318 6.62466 11.9185 6.62466C11.5477 6.62466 11.1774 6.62466 10.8066 6.62466C10.8066 6.62505 10.8066 6.62583 10.8066 6.62661Z" fill="black"/>
</svg>
