<svg width="154" height="107" viewBox="0 0 154 107" fill="none" xmlns="http://www.w3.org/2000/svg">
<path d="M150.153 29.7135C151.788 29.9315 153.05 31.3262 153.05 33.0208C153.05 34.8634 151.555 36.3589 149.712 36.3589H126.338C124.495 36.3589 123 34.8634 123 33.0208C123 31.1754 124.495 29.6798 126.338 29.6798H128.301C127.9 28.8757 127.675 27.969 127.675 27.0086C127.675 23.6904 130.365 21 133.683 21C137.002 21 139.695 23.6904 139.695 27.0086C139.695 27.969 139.467 28.8757 139.069 29.6798H141.253C141.253 27.2221 143.244 25.2286 145.704 25.2286C148.165 25.2286 150.156 27.2221 150.156 29.6798C150.156 29.6917 150.153 29.7016 150.153 29.7135Z" fill="#99E2FF"/>
<path d="M129 34.6083C129.462 33.1509 130.867 32.1987 132.395 32.1987C133.189 32.1987 133.798 31.4772 133.644 30.6986C133.569 30.3206 133.529 29.929 133.529 29.5283C133.529 26.5199 135.74 24.0276 138.625 23.5879C137.456 21.9043 135.449 20.8457 133.207 21.0184C130.254 21.2455 127.874 23.6633 127.687 26.6199C127.618 27.7238 127.847 28.7678 128.301 29.68H126.436C124.638 29.68 123.09 31.0602 123.004 32.8565C122.912 34.7745 124.44 36.3582 126.338 36.3582H128.961C128.824 35.8185 128.803 35.2325 129 34.6083Z" fill="#79D8FD"/>
<path d="M36.4321 24.69C38.6254 24.9826 40.3172 26.8543 40.3172 29.1267C40.3172 31.6017 38.3111 33.6052 35.8369 33.6052H4.4803C2.00619 33.6052 0 31.6017 0 29.1267C0 26.6526 2.00619 24.6464 4.4803 24.6464H7.11069C6.57553 23.567 6.27024 22.3504 6.27024 21.0638C6.27024 16.6099 9.88192 13 14.334 13C18.788 13 22.3979 16.6099 22.3979 21.0638C22.3979 22.3504 22.0953 23.567 21.5574 24.6464H24.4876C24.4876 21.3473 27.1635 18.6733 30.4608 18.6733C33.7608 18.6733 36.4339 21.3473 36.4339 24.6464C36.4339 24.661 36.4321 24.6755 36.4321 24.69Z" fill="#99E2FF"/>
<path d="M5.88786 31.0966C6.16589 28.8287 8.16935 27.166 10.4545 27.166C11.5929 27.166 12.4561 26.1374 12.2535 25.0171C12.169 24.5519 12.1254 24.0722 12.1254 23.5824C12.1254 19.1294 15.7352 15.5205 20.1865 15.5195C18.7164 13.9686 16.6393 13 14.3342 13C9.88206 13 6.27038 16.6099 6.27038 21.0638C6.27038 22.3504 6.57476 23.567 7.10992 24.6464H4.58765C2.15806 24.6464 0.0882734 26.5363 0.00286501 28.965C-0.0870863 31.5136 1.95272 33.6052 4.48044 33.6052H6.31036C5.94692 32.8611 5.77701 32.0052 5.88786 31.0966Z" fill="#79D8FD"/>
<path d="M27.1544 94.7135C28.788 94.9324 30.051 96.3262 30.051 98.0208C30.051 99.8634 28.5554 101.359 26.7128 101.359H3.33819C1.49464 101.359 0 99.8634 0 98.0208C0 96.1754 1.49464 94.6798 3.33819 94.6798H5.30167C4.90007 93.8766 4.67474 92.969 4.67474 92.0095C4.67474 88.6904 7.3651 86 10.6842 86C14.0033 86 16.6955 88.6904 16.6955 92.0095C16.6955 92.969 16.4674 93.8766 16.0695 94.6798H18.2528C18.2528 92.223 20.2454 90.2286 22.705 90.2286C25.1645 90.2286 27.1562 92.223 27.1562 94.6798C27.1562 94.6926 27.1544 94.7016 27.1544 94.7135Z" fill="#99E2FF"/>
<path d="M6.00068 99.6102C6.46224 98.1537 7.86694 97.2015 9.3952 97.2015C10.1893 97.2015 10.7981 96.4792 10.6436 95.7005C10.5691 95.3226 10.53 94.9309 10.53 94.5303C10.53 91.5219 12.7397 89.0305 15.6255 88.5898C14.4561 86.9062 12.449 85.8477 10.2084 86.0203C7.25454 86.2475 4.87401 88.6653 4.68775 91.6227C4.61779 92.7258 4.84676 93.7707 5.30196 94.682H3.4357C1.63759 94.682 0.0902424 96.0631 0.00392545 97.8585C-0.0878429 99.7765 1.44133 101.361 3.33848 101.361H5.9607C5.8235 100.82 5.8026 100.234 6.00068 99.6102Z" fill="#79D8FD"/>
<path d="M31.3566 106.268C28.6664 105.827 27.4783 104.166 27.0639 101.529C25.1793 89.4743 23.2392 77.4283 21.1947 65.3991C20.7476 62.7632 21.8944 60.0133 25.4378 59.5634C28.6725 59.1527 31.905 58.6614 35.0949 57.9473C36.4283 57.3876 37.8707 57.3375 39.267 57.0849C40.9143 56.7871 42.5754 56.5616 44.2164 56.2255C44.9392 56.2177 45.6352 56.0304 46.3411 55.9182C55.227 54.4839 64.109 53.0394 72.9952 51.6073C73.6241 51.5054 74.2594 51.2952 74.9001 51.5763C75.2803 51.9107 75.3435 52.3817 75.4193 52.8354C76.499 59.427 77.5684 66.0224 78.6289 72.6171C78.6804 72.9347 78.7234 73.2537 78.6879 73.5745C78.6047 73.8439 78.5569 74.2236 78.1537 73.8558C77.9405 73.6606 77.8723 73.3611 77.7577 73.0996C75.7314 68.5364 71.3991 66.4145 66.3409 67.5059C62.3267 68.3712 59.1621 72.5334 59.1585 76.9773C59.1517 83.4387 65.4257 87.2279 70.1701 86.4542C74.4989 85.748 78.3658 82.045 78.54 77.3176C78.5706 76.4944 78.6122 76.4942 79.1924 76.7939C79.3877 77.1889 79.444 77.6173 79.5128 78.0415C80.5045 84.131 81.492 90.2212 82.4731 96.3125C82.5637 96.871 82.7333 97.4451 82.3972 97.9896C65.3825 100.751 48.3695 103.509 31.3566 106.268Z" fill="#FB6A83"/>
<path d="M78.4917 74.023C77.2852 66.555 76.0784 59.0849 74.874 51.6166C75.081 50.8961 75.741 50.9597 76.2647 50.8705C79.8635 50.2629 83.467 49.6852 87.0727 49.1071C93.1132 48.1364 99.1485 47.1207 105.195 46.1862C107.793 45.7234 110.403 45.333 113.009 44.9017C113.514 44.8177 114.004 44.8585 114.487 45.0077C117.674 44.5151 120.87 44.0843 124.041 43.5089C126.587 43.048 128.553 43.6896 129.844 46.0136C132.004 59.3345 134.164 72.6575 136.324 85.9784C136.317 87.8501 135.426 89.0862 133.652 89.6845C116.567 92.4547 99.4837 95.2246 82.3982 97.9949C81.2316 90.8267 80.0628 83.6589 78.8962 76.4908C78.3173 75.7402 78.1881 74.9167 78.4917 74.023Z" fill="#FB6A83"/>
<path d="M133.65 89.6831C135.082 88.8384 135.973 87.6023 136.322 85.9771C136.472 86.898 136.598 87.8248 136.781 88.738C136.856 89.1065 136.788 89.2006 136.415 89.2458C135.49 89.3607 134.571 89.5338 133.65 89.6831Z" fill="#FFFCFB"/>
<path d="M44.2276 56.4545C41.2129 57.1292 38.1619 57.5933 35.0961 57.9526C42.4195 47.8939 49.743 37.8353 57.0618 27.7752C58.2855 26.0935 59.4972 24.405 60.7138 22.7201C61.1103 22.7367 61.2217 23.0731 61.3761 23.3368C62.1654 24.6834 63.2308 25.7489 64.561 26.5592C64.8935 26.7613 65.2373 26.9659 65.3527 27.3804C65.332 27.8059 65.0445 28.0976 64.8156 28.4125C58.2915 37.4643 51.7649 46.5143 45.2313 55.561C44.9688 55.9252 44.7704 56.3883 44.2276 56.4545Z" fill="#FFC431"/>
<path d="M114.485 45.0055C111.444 45.5051 108.401 46.005 105.36 46.5047C104.777 46.3913 104.317 46.0502 103.851 45.7123C97.3948 41.0558 90.9189 36.4265 84.488 31.7373C82.1113 30.005 79.5866 28.4935 77.2424 26.7187C76.8507 26.4213 76.3574 26.2125 76.2207 25.6658C76.3365 24.9098 77.0379 24.5401 77.3761 23.9274C77.9412 22.906 78.5335 21.9042 78.7588 20.7301C78.8264 20.3778 78.7901 19.9243 79.2467 19.7453C90.6826 27.9261 102.118 36.1048 113.552 44.286C113.871 44.5121 114.174 44.7648 114.485 45.0055Z" fill="#FFC431"/>
<path d="M79.2472 19.7444C78.8705 22.0085 77.8969 23.9778 76.3192 25.6491C75.2883 27.2383 73.6785 27.834 71.9365 28.2083C71.1282 28.3503 70.7209 27.9569 70.5982 27.2002C70.3251 25.5424 69.9816 23.8961 69.8345 22.2201C69.8292 21.6478 70.2511 21.4568 70.6785 21.2322C71.9624 20.5559 72.5892 19.4829 72.4318 18.2964C72.2744 17.1099 71.2983 16.1634 69.8981 15.8391C69.4867 15.7439 69.0244 15.7533 68.7729 15.3084C68.2523 13.5682 68.1019 11.7637 67.8197 9.98268C67.7762 9.70095 67.813 9.41496 67.9993 9.17472C73.6761 7.98519 79.4777 12.8814 79.2622 18.6766C79.2472 19.029 79.2506 19.3873 79.2472 19.7444Z" fill="#CEB4A0"/>
<path d="M70.0538 21.8459C70.3313 23.5707 70.6496 25.2912 70.8717 27.025C70.9736 27.8158 71.229 28.2032 72.0654 27.9516C72.1373 28.2462 71.9106 28.3595 71.7156 28.3846C69.5978 28.6405 67.4941 28.754 65.5371 27.6537C65.4408 27.5993 65.3876 27.5008 65.3355 27.4086C63.3523 26.2819 61.7481 24.7808 60.7135 22.7171C58.2338 17.1117 61.2969 11.0954 66.7411 9.42949C67.1474 9.30453 67.5769 9.25459 67.9962 9.1691C68.337 11.2709 68.6778 13.3728 69.0186 15.4746C68.8293 15.8728 68.3988 15.9295 68.0755 16.1351C66.9647 16.8402 66.4093 18.0154 66.635 19.2324C66.8348 20.3157 67.8537 21.2837 69.0586 21.5237C69.4024 21.5927 69.7767 21.567 70.0538 21.8459Z" fill="#CEB4A0"/>
<path d="M78.4909 74.0198C78.6264 74.8423 78.7598 75.6652 78.8954 76.4876C78.7912 79.2589 78.0031 81.7516 76.0247 83.7985C73.0649 86.8621 68.4056 87.716 64.5426 85.8702C60.587 83.9804 58.3165 79.7456 58.945 75.4323C59.5612 71.2042 62.874 67.7945 67.0765 67.065C72.0255 66.2035 76.5577 68.8705 78.278 73.6518C78.3257 73.7841 78.4186 73.8981 78.4909 74.0198Z" fill="white"/>
<path d="M38.1242 71.7592C39.8632 71.4335 41.5518 71.6476 43.1972 72.2559C44.8705 72.875 45.5705 74.1026 45.0409 75.4639C44.527 76.7876 43.2729 77.2163 41.6119 76.6324C39.0852 75.7426 36.5979 76.5397 35.1878 78.6913C33.8585 80.7205 34.1066 83.4783 35.7724 85.2516C38.0771 87.7001 42.0683 87.3811 43.4468 84.9677C44.122 83.7884 45.5992 83.6298 46.6508 84.3672C47.6924 85.0975 47.9148 86.4287 47.197 87.6149C44.9018 91.4043 39.4804 92.7121 35.1776 90.5154C31.2754 88.5229 29.1239 84.3475 29.7868 80.0571C30.4471 75.7912 33.7905 72.4619 38.1242 71.7592Z" fill="white"/>
<path d="M48.9591 80.0372C48.563 77.5943 48.1392 75.1559 47.7815 72.7068C47.5312 71.0015 48.6804 69.7235 50.2743 69.8392C51.3855 69.9194 52.2008 70.7782 52.4297 72.1631C53.0583 75.986 53.6933 79.8078 54.2747 83.6361C54.3899 84.4006 54.5941 84.7154 55.4148 84.4882C56.1016 84.2981 56.8248 84.2115 57.5366 84.1354C58.8117 83.9987 59.9246 84.8443 60.1159 86.0515C60.3008 87.2051 59.5572 88.3802 58.3447 88.6205C56.4814 88.9883 54.6044 89.2992 52.7199 89.5369C51.3456 89.7094 50.4123 88.8784 50.1541 87.367C49.7364 84.9254 49.3552 82.4801 48.9591 80.0372Z" fill="white"/>
<path d="M110.796 69.9137C110.41 67.5436 110.015 65.1749 109.648 62.8017C109.44 61.4638 109.978 60.427 111.203 60.1168C113.288 59.5906 115.414 59.1672 117.571 59.2242C119.668 59.2803 121.43 60.1934 122.849 61.7508C125.798 64.9895 126.529 70.6597 124.468 74.5161C123.3 76.7029 121.47 78.0344 119.042 78.5111C117.671 78.7816 116.287 78.9886 114.906 79.2015C113.312 79.4491 112.255 78.7212 111.977 77.1256C111.555 74.7284 111.189 72.3179 110.796 69.9137Z" fill="#EDF7FD"/>
<path d="M89.6643 83.6859C86.9193 83.9998 84.571 83.5623 82.4639 82.1166C81.1493 81.214 80.8007 79.8201 81.5765 78.6945C82.3343 77.5937 83.7053 77.3867 84.9941 78.2519C86.2631 79.1028 87.6108 79.3591 89.0912 79.0315C89.6783 78.9013 90.16 78.6066 90.5174 78.1396C91.0284 77.4726 90.9631 76.8947 90.2121 76.4323C89.7118 76.1262 89.1515 76.0027 88.5946 75.8742C87.3398 75.5832 86.0821 75.3015 84.8237 75.0286C82.4817 74.5223 80.985 73.1439 80.5534 70.7658C80.1073 68.3113 81.0888 66.4042 83.0852 65.0216C85.5257 63.3286 89.823 63.3866 92.2869 65.0764C93.2886 65.7628 93.6187 67.07 93.0578 68.117C92.5022 69.1566 91.2615 69.6006 90.0968 69.0959C88.9582 68.6045 87.8303 68.2055 86.5644 68.4938C86.17 68.5841 85.8114 68.7341 85.4962 68.9755C85.1944 69.206 85.0269 69.522 85.0657 69.9095C85.1134 70.3655 85.4979 70.4432 85.8454 70.5225C87.3797 70.8775 88.9245 71.1893 90.4487 71.5766C92.5229 72.1044 94.2288 73.1667 95.0674 75.236C96.343 78.3807 94.5146 82.0266 91.086 83.252C90.5473 83.4509 89.9878 83.5897 89.6643 83.6859Z" fill="#EDF7FD"/>
<path d="M101.561 61.4722C102.588 61.3056 103.612 61.1177 104.644 60.9788C106.038 60.79 107.12 61.5421 107.353 62.817C107.592 64.1302 106.794 65.2355 105.362 65.5114C104.342 65.7096 103.314 65.8872 102.281 66.0087C101.65 66.0826 101.448 66.2837 101.552 66.9626C101.877 69.091 101.847 69.0959 103.96 68.7534C104.491 68.6673 105.02 68.5574 105.557 68.5076C106.766 68.399 107.792 69.1253 108.052 70.2426C108.34 71.4779 107.799 72.585 106.572 72.9634C105.62 73.2578 104.613 73.4035 103.62 73.5273C102.921 73.6144 102.645 73.7971 102.786 74.5901C103.14 76.5653 103.097 76.5722 105.116 76.2449C105.753 76.1415 106.389 76.0144 107.029 75.9412C108.469 75.7821 109.587 76.5809 109.787 77.883C109.99 79.1978 109.171 80.2998 107.737 80.5498C105.722 80.9027 103.704 81.2321 101.68 81.5296C100.221 81.7443 99.1172 80.9826 98.8719 79.5237C98.044 74.6065 97.248 69.6841 96.4759 64.7601C96.2449 63.2814 97.0262 62.2446 98.4848 61.971C99.5024 61.7841 100.533 61.6388 101.561 61.4722Z" fill="#EDF7FD"/>
<path d="M63.5832 77.6871C63.1235 74.7842 65.1053 72.0301 67.9863 71.5695C70.8757 71.1076 73.6081 73.0907 74.0881 75.997C74.5753 78.948 72.5764 81.718 69.6359 82.1619C66.7426 82.6004 64.0454 80.605 63.5832 77.6871Z" fill="#FB6A83"/>
<path d="M115.408 69.2228C115.172 67.7712 114.952 66.3192 114.694 64.8713C114.606 64.3867 114.713 64.1922 115.232 64.0774C118.233 63.4136 119.989 64.4896 120.68 67.4951C120.816 68.0878 120.914 68.6932 120.966 69.2974C121.221 72.2445 119.669 74.01 116.746 74.2126C116.154 74.254 116.196 73.9059 116.139 73.5716C115.895 72.1213 115.665 70.671 115.429 69.2194C115.423 69.2204 115.414 69.2218 115.408 69.2228Z" fill="#FB6A83"/>
</svg>
