<svg width="80" height="81" viewBox="0 0 80 81" fill="none" xmlns="http://www.w3.org/2000/svg">
<circle cx="40" cy="40.5" r="40" fill="#FAF3EE"/>
<path d="M39.3016 66.7505C37.0951 65.9794 34.8906 65.2022 32.6821 64.4383C27.0205 62.4813 21.3559 60.5325 15.6944 58.5776C14.3678 58.1196 13.7508 57.2448 13.7508 55.8413C13.7497 48.1899 13.7497 40.5385 13.7508 32.8882C13.7508 31.7094 14.1266 31.1981 15.2693 30.8305C23.2452 28.2616 31.222 25.6999 39.1927 23.1155C39.8622 22.8989 40.4597 23.0057 41.0871 23.2079C45.1315 24.5098 49.1779 25.8025 53.2223 27.1024C57.0716 28.3407 60.9178 29.5923 64.7702 30.8193C65.4694 31.0421 65.9818 31.425 66.2518 32.113C66.2518 40.3106 66.2518 48.5092 66.2518 56.7068C65.8791 57.7017 65.1727 58.3055 64.1644 58.6494C58.5532 60.5654 52.9502 62.5049 47.3462 64.4413C45.1407 65.2032 42.9394 65.9794 40.7359 66.7495C40.2585 66.7505 39.78 66.7505 39.3016 66.7505ZM15.9316 32.5925C16.1359 32.8245 16.369 32.8337 16.5713 32.8984C23.699 35.1963 30.8298 37.488 37.9575 39.7859C40.01 40.4471 40.0069 40.4543 42.0789 39.789C49.2919 37.4736 56.5048 35.1593 63.7168 32.8409C63.8667 32.7927 64.0535 32.7999 64.1655 32.5925C62.3296 32.0103 60.5092 31.4394 58.6929 30.8552C53.0406 29.0368 47.3903 27.2112 41.7381 25.3939C40.9721 25.1475 40.968 25.1598 40.968 25.9504C40.968 29.5707 40.97 33.19 40.9649 36.8104C40.9639 37.5168 40.5655 37.9726 39.9977 37.9562C39.4422 37.9408 39.0859 37.5034 39.0705 36.8196C39.0675 36.683 39.0695 36.5465 39.0695 36.4099C39.0695 32.8409 39.0634 29.2719 39.0767 25.704C39.0788 25.2655 38.9658 25.1762 38.549 25.3169C37.1577 25.783 35.7572 26.2204 34.3608 26.6681C29.0001 28.3879 23.6394 30.1077 18.2798 31.8286C17.5066 32.075 16.7366 32.3296 15.9316 32.5925ZM40.968 53.3699C40.968 56.905 40.968 60.4391 40.968 63.9742C40.968 64.66 40.97 64.6621 41.6364 64.4321C44.1848 63.5522 46.7322 62.6692 49.2806 61.7903C54.0232 60.1536 58.7668 58.5211 63.5083 56.8824C64.3544 56.5898 64.417 56.4881 64.417 55.5774C64.417 54.5188 64.4067 53.4602 64.4067 52.4016C64.4057 46.6816 64.4067 40.9615 64.4047 35.2405C64.4047 34.6193 64.3852 34.6069 63.8102 34.7907C56.3857 37.1708 48.9633 39.5559 41.5348 41.9226C41.0984 42.0622 40.9567 42.2604 40.9587 42.7132C40.9762 46.2657 40.968 49.8183 40.968 53.3699ZM39.0695 53.3822C39.0695 49.8471 39.0613 46.3109 39.0798 42.7758C39.0818 42.2871 38.935 42.0571 38.4545 41.9092C36.1874 41.2121 33.9316 40.4769 31.6738 39.751C26.5082 38.0887 21.3416 36.4284 16.1801 34.7527C15.7375 34.609 15.602 34.6942 15.6143 35.1573C15.64 36.1132 15.6318 37.0701 15.6318 38.026C15.6328 43.9186 15.6328 49.8101 15.6349 55.7026C15.6349 56.4604 15.7324 56.6041 16.4624 56.8577C18.2192 57.4676 19.9832 58.0611 21.741 58.6679C27.3388 60.6003 32.9357 62.5316 38.5284 64.4763C38.9627 64.6272 39.0808 64.5676 39.0788 64.0912C39.0623 60.5212 39.0695 56.9512 39.0695 53.3822Z" fill="#D9C5B6"/>
<path d="M54.0508 15.9928C54.7716 16.0082 55.1567 16.6848 54.8189 17.3995C54.4184 18.2465 53.9831 19.0772 53.5621 19.915C53.1185 20.798 52.6822 21.6851 52.2273 22.563C52.0292 22.945 51.6914 23.14 51.256 23.0733C50.8484 23.0107 50.5876 22.756 50.4767 22.3556C50.4038 22.0907 50.4829 21.8443 50.5979 21.6153C51.4532 19.9099 52.3136 18.2065 53.1781 16.5052C53.3557 16.153 53.6535 15.9805 54.0508 15.9928Z" fill="#D9C5B6"/>
<path d="M25.1252 16.9422C25.1129 16.5213 25.2895 16.2071 25.6848 16.0572C26.0904 15.9031 26.4652 15.9945 26.7537 16.3221C26.8759 16.4607 26.9621 16.6332 27.0453 16.8005C27.8266 18.3745 28.6039 19.9506 29.3811 21.5267C29.4335 21.6335 29.4848 21.7423 29.5228 21.8552C29.6717 22.2926 29.5074 22.7403 29.1234 22.958C28.7168 23.188 28.2117 23.1048 27.9283 22.729C27.7763 22.5267 27.6695 22.2885 27.5545 22.0606C26.8317 20.6283 26.1109 19.1949 25.3932 17.7605C25.2628 17.5018 25.1139 17.2472 25.1252 16.9422Z" fill="#D9C5B6"/>
<path d="M40.972 17.8406C40.972 18.6425 40.9762 19.4454 40.971 20.2473C40.9659 20.8901 40.6014 21.3254 40.0654 21.348C39.5182 21.3716 39.0828 20.9219 39.0766 20.2689C39.0633 18.6138 39.0643 16.9576 39.0756 15.3025C39.0797 14.6351 39.437 14.2552 40.0069 14.2501C40.5983 14.2449 40.9546 14.633 40.9638 15.3312C40.9762 16.167 40.9669 17.0038 40.9669 17.8406C40.9679 17.8406 40.97 17.8406 40.972 17.8406Z" fill="#D9C5B6"/>
<path d="M42.5595 52.1968C42.5595 49.8066 42.5584 47.4163 42.5605 45.026C42.5615 43.7282 42.9661 43.1717 44.2074 42.7723C49.5506 41.0555 54.8949 39.3398 60.2402 37.6282C61.7177 37.1549 62.8009 37.9496 62.8019 39.501C62.806 44.299 62.805 49.096 62.8091 53.8941C62.8101 55.0009 62.4333 55.5492 61.3676 55.9178C58.8356 56.7916 56.3005 57.654 53.7675 58.5257C50.9604 59.4909 48.1368 60.4129 45.3553 61.4479C43.6458 62.0834 42.4999 60.9294 42.542 59.419C42.6088 57.0133 42.5595 54.6046 42.5595 52.1968ZM44.4631 47.6165C44.461 47.6165 44.4579 47.6165 44.4559 47.6165C44.4559 48.4533 44.4713 49.2901 44.4497 50.1259C44.4384 50.5335 44.5657 50.5766 44.9272 50.4544C46.1552 50.0396 47.3955 49.6587 48.6286 49.2603C49.9439 48.8363 50.8495 49.0991 51.715 50.1649C52.2828 50.8641 52.9112 51.0859 53.6453 50.8456C54.3558 50.6136 54.785 50.0098 54.8405 49.1648C54.9278 47.8352 55.5664 47.0374 56.8447 46.637C58.0491 46.2591 59.2483 45.8638 60.4548 45.4911C60.7782 45.3915 60.924 45.2252 60.9219 44.8709C60.9086 43.2148 60.9065 41.5586 60.923 39.9025C60.9271 39.4569 60.7628 39.4322 60.3983 39.5554C59.4773 39.8676 58.546 40.1499 57.6209 40.4477C53.3661 41.8153 49.1122 43.1871 44.8553 44.5496C44.5637 44.643 44.4518 44.8001 44.4579 45.1071C44.4733 45.9429 44.4631 46.7797 44.4631 47.6165ZM44.4559 56.118C44.4559 57.1766 44.4672 58.2362 44.4497 59.2948C44.4436 59.6716 44.5575 59.7229 44.8984 59.6049C50.0907 57.806 55.2861 56.0153 60.4835 54.2308C60.7874 54.1261 60.923 53.9752 60.9209 53.6446C60.9076 51.6978 60.9004 49.7511 60.9117 47.8044C60.9137 47.3865 60.7628 47.3588 60.4199 47.4727C59.5943 47.7469 58.7709 48.0436 57.9259 48.2387C57.0439 48.443 56.5808 48.8989 56.6414 49.8281C56.6476 49.9267 56.6085 50.0294 56.5819 50.1279C56.1978 51.5223 55.2974 52.4094 53.8928 52.7215C52.482 53.0347 51.292 52.5798 50.3761 51.4781C50.0414 51.0756 49.7098 50.8846 49.1872 51.0561C47.76 51.5243 46.3297 51.9812 44.8943 52.4207C44.5545 52.5244 44.4425 52.6989 44.4487 53.0449C44.4682 54.0686 44.4559 55.0933 44.4559 56.118Z" fill="#D9C5B6"/>
<path d="M17.2356 46.7153C17.2356 44.325 17.2346 41.9347 17.2356 39.5455C17.2366 37.9407 18.3219 37.1583 19.8651 37.6532C24.6888 39.2015 29.5105 40.7519 34.3342 42.3013C34.9184 42.4892 35.5088 42.6617 36.0889 42.8619C37.0243 43.1853 37.4678 43.75 37.4699 44.7265C37.4822 49.7288 37.4873 54.7312 37.4688 59.7325C37.4637 61.1535 36.2788 61.9688 34.9297 61.5067C29.491 59.6432 24.0563 57.7673 18.6228 55.8904C17.6053 55.5382 17.2305 54.9807 17.2295 53.8851C17.2284 51.4949 17.2295 49.1046 17.2295 46.7143C17.2315 46.7153 17.2336 46.7153 17.2356 46.7153ZM19.1218 41.3721C19.1248 41.3721 19.129 41.3721 19.132 41.3721C19.132 41.7643 19.131 42.1565 19.132 42.5487C19.1341 43.3486 19.1331 43.3517 19.9185 43.6022C21.9484 44.2501 23.9804 44.8897 26.0092 45.5417C29.0115 46.5058 32.0106 47.4792 35.0118 48.4464C35.5611 48.623 35.5806 48.6086 35.5817 48.0224C35.5827 47.1691 35.5355 46.3138 35.5899 45.4647C35.6289 44.863 35.4266 44.6033 34.8475 44.4226C31.4469 43.3609 28.0586 42.2582 24.6673 41.1667C22.9957 40.6287 21.3242 40.0927 19.6567 39.5414C19.2522 39.4079 19.092 39.4962 19.1156 39.9397C19.1413 40.4151 19.1218 40.8946 19.1218 41.3721ZM35.5755 52.5462C35.5776 52.5462 35.5796 52.5462 35.5827 52.5462C35.5827 52.0688 35.5601 51.5893 35.5899 51.1129C35.6145 50.7176 35.4585 50.5338 35.0868 50.4219C33.8783 50.0594 32.677 49.6724 31.4767 49.2863C27.5483 48.0234 23.622 46.7553 19.6937 45.4904C19.1608 45.3189 19.1259 45.3446 19.1238 45.9319C19.1197 46.8529 19.1454 47.7759 19.1136 48.6959C19.0982 49.1374 19.2706 49.3222 19.6762 49.4496C22.1322 50.2196 24.581 51.0154 27.0329 51.7998C29.6953 52.652 32.3587 53.5032 35.0231 54.3533C35.5724 54.5289 35.5745 54.5258 35.5765 53.9283C35.5765 53.4683 35.5755 53.0073 35.5755 52.5462ZM35.5817 58.1256C35.5817 57.8186 35.5519 57.5075 35.5889 57.2046C35.6525 56.6882 35.442 56.4592 34.944 56.3052C32.2724 55.4787 29.6121 54.6152 26.9487 53.763C24.5287 52.9888 22.1076 52.2187 19.6926 51.4281C19.247 51.2823 19.1053 51.387 19.1259 51.8439C19.1485 52.3553 19.1659 52.8717 19.1115 53.3789C19.053 53.9293 19.284 54.148 19.7851 54.3184C24.1601 55.8062 28.5248 57.3217 32.8936 58.829C33.6514 59.0908 34.4132 59.3403 35.1669 59.6113C35.4872 59.7263 35.6022 59.6442 35.5858 59.3033C35.5673 58.9111 35.5817 58.5179 35.5817 58.1256Z" fill="#D9C5B6"/>
</svg>
