<svg width="295" height="110" viewBox="0 0 295 110" fill="none" xmlns="http://www.w3.org/2000/svg">
<rect width="295" height="110" rx="6" fill="#FAF3EE"/>
<path d="M165.369 60.166L152.133 72.1469V60.166H165.369Z" fill="#C6AB97"/>
<path d="M197.805 10L152.129 60.1662V72.1472L137.715 60.1662L197.805 10Z" fill="#D8C1B0"/>
<path d="M197.807 10L137.717 60.1662H114.206C113.616 60.1662 113.405 59.3865 113.914 59.0888L197.807 10Z" fill="#E1CABA"/>
<path d="M125.094 57.0054C124.504 57.0054 124.292 56.2256 124.802 55.9279L184.952 20.7321L197.807 10L113.914 59.088C113.405 59.3865 113.617 60.1662 114.206 60.1662H137.718L141.504 57.0054H125.094Z" fill="#E1CABA"/>
<path d="M197.808 10L186.715 59.5426C186.633 59.9073 186.31 60.1662 185.937 60.1662H152.133L197.808 10Z" fill="#E1CABA"/>
<path d="M189.342 94.1301C190.712 94.3129 191.77 95.4817 191.77 96.9019C191.77 98.4461 190.517 99.6995 188.972 99.6995H169.384C167.839 99.6995 166.586 98.4461 166.586 96.9019C166.586 95.3553 167.839 94.1019 169.384 94.1019H171.028C170.693 93.428 170.504 92.6681 170.504 91.8632C170.504 89.0823 172.758 86.8276 175.539 86.8276C178.321 86.8276 180.578 89.0823 180.578 91.8632C180.578 92.6681 180.387 93.428 180.052 94.1019H181.883C181.883 92.0422 183.552 90.3715 185.613 90.3715C187.676 90.3715 189.345 92.0422 189.345 94.1019C189.345 94.1118 189.342 94.1202 189.342 94.1301Z" fill="#99E2FF"/>
<path d="M134.488 25.8429C136.326 26.0881 137.744 27.6568 137.744 29.5612C137.744 31.6354 136.062 33.3145 133.989 33.3145H107.71C105.636 33.3145 103.955 31.6354 103.955 29.5612C103.955 27.4877 105.636 25.8064 107.71 25.8064H109.914C109.466 24.9018 109.21 23.8822 109.21 22.8039C109.21 19.0712 112.237 16.0459 115.968 16.0459C119.701 16.0459 122.726 19.0712 122.726 22.8039C122.726 23.8822 122.472 24.9018 122.022 25.8064H124.477C124.477 23.0415 126.72 20.8005 129.483 20.8005C132.249 20.8005 134.489 23.0415 134.489 25.8064C134.489 25.8186 134.488 25.8308 134.488 25.8429Z" fill="#99E2FF"/>
<path d="M120.757 80.051C122.126 80.2345 123.185 81.4026 123.185 82.8228C123.185 84.367 121.931 85.6204 120.387 85.6204H100.798C99.2526 85.6204 98 84.367 98 82.8228C98 81.2762 99.2526 80.0228 100.798 80.0228H102.443C102.107 79.3497 101.918 78.589 101.918 77.7849C101.918 75.0032 104.172 72.7485 106.954 72.7485C109.736 72.7485 111.992 75.0032 111.992 77.7849C111.992 78.589 111.801 79.3497 111.467 80.0228H113.297C113.297 77.9638 114.967 76.2924 117.028 76.2924C119.09 76.2924 120.759 77.9638 120.759 80.0228C120.759 80.0335 120.757 80.0411 120.757 80.051Z" fill="#99E2FF"/>
<path d="M171.614 98.2333C172.002 97.0119 173.179 96.2139 174.46 96.2139C175.125 96.2139 175.635 95.6093 175.506 94.9567C175.444 94.6399 175.41 94.3117 175.41 93.9759C175.41 91.4547 177.263 89.366 179.681 88.9974C178.701 87.5864 177.019 86.6993 175.141 86.844C172.665 87.0344 170.671 89.0606 170.514 91.5385C170.456 92.4636 170.648 93.3386 171.029 94.1031H169.465C167.958 94.1031 166.662 95.2597 166.589 96.7652C166.512 98.3726 167.793 99.6999 169.384 99.6999H171.581C171.466 99.2476 171.449 98.7564 171.614 98.2333Z" fill="#79D8FD"/>
<path d="M108.89 31.213C109.123 29.3124 110.802 27.9189 112.717 27.9189C113.671 27.9189 114.394 27.0569 114.224 26.118C114.154 25.7282 114.117 25.3261 114.117 24.9157C114.117 21.1837 117.142 18.1592 120.873 18.1584C119.641 16.8586 117.9 16.0469 115.968 16.0469C112.237 16.0469 109.21 19.0722 109.21 22.8049C109.21 23.8831 109.465 24.9027 109.914 25.8074H107.8C105.764 25.8074 104.029 27.3912 103.957 29.4266C103.882 31.5625 105.592 33.3154 107.71 33.3154H109.244C108.939 32.6918 108.797 31.9745 108.89 31.213Z" fill="#79D8FD"/>
<path d="M103.029 84.1552C103.416 82.9345 104.593 82.1365 105.874 82.1365C106.539 82.1365 107.05 81.5311 106.92 80.8786C106.858 80.5618 106.825 80.2336 106.825 79.8978C106.825 77.3766 108.677 75.2886 111.095 74.9193C110.115 73.5083 108.433 72.6212 106.555 72.7659C104.08 72.9563 102.085 74.9825 101.929 77.4611C101.87 78.3855 102.062 79.2612 102.443 80.025H100.879C99.3724 80.025 98.0756 81.1824 98.0033 82.687C97.9264 84.2945 99.2079 85.6225 100.798 85.6225H102.995C102.88 85.1694 102.863 84.6783 103.029 84.1552Z" fill="#79D8FD"/>
</svg>
