<svg width="352" height="131" viewBox="0 0 352 131" fill="none" xmlns="http://www.w3.org/2000/svg">
<g clip-path="url(#clip0_354:5384)">
<rect width="352" height="131" rx="6" fill="white"/>
<rect width="352" height="131.254" rx="6" fill="#FAF3EE"/>
<g opacity="0.35">
<path opacity="0.35" d="M320.539 119.281C314.882 98.9775 332.87 98.1978 333.267 72.0384C333.428 61.3361 327.564 50.4427 313.468 45.4433C306.534 42.9894 299.631 41.2999 293.462 37.3936C279.412 28.4954 279.664 11.5553 275.826 -2.87748C267.402 -34.5944 201.446 -59.8059 168.643 -58.9803C144.999 -58.3917 134.09 -46.9937 112.533 -26.927C97.7867 -13.1975 71.7954 -14.4359 79.3711 21.0421C86.1135 52.6443 70.2054 50.2975 55.635 61.963C41.0952 73.6055 30.4465 87.4955 36.2333 103.258C42.6165 120.642 3.55322 130.618 -3.4109 153.146C-8.14283 168.428 16.6788 169.712 33.5731 169.712C50.4674 169.712 194.994 168.412 256.119 170.224C272.57 170.713 325.065 175.193 332.495 154.683C337.548 140.724 324.491 133.462 320.539 119.281Z" fill="#E5C3AA"/>
</g>
<path d="M71.9785 64.7949C77.4899 94.9098 98.4801 121.753 126.379 134.362" stroke="#EEDDD1" stroke-width="1.393" stroke-miterlimit="10"/>
<path d="M73.3758 71.0962C70.7822 67.6951 69.4678 63.3331 69.7507 59.0655C69.8214 58.0163 70.0513 56.861 70.906 56.2539C71.1418 56.0888 71.4247 55.9709 71.7136 56.0063C72.1733 56.0652 72.4975 56.4837 72.7156 56.8905C73.9004 59.0478 73.8886 61.6532 73.6175 64.0994C73.3463 66.5456 73.4642 68.4142 73.3758 71.0962Z" fill="#EEDDD1"/>
<path d="M76.0688 79.3779C75.0373 75.2223 75.556 70.7012 77.5129 66.8934C77.9904 65.962 78.6624 64.9894 79.688 64.7655C79.9709 64.7065 80.2775 64.7124 80.5309 64.8539C80.9317 65.0896 81.0555 65.6025 81.1027 66.0681C81.3326 68.5202 80.2892 70.9075 79.0691 73.0413C77.8489 75.1869 77.2182 76.9494 76.0688 79.3779Z" fill="#EEDDD1"/>
<path d="M80.4369 89.7993C78.9043 85.8029 78.869 81.2523 80.3485 77.2323C80.7081 76.2479 81.2562 75.1987 82.2465 74.8568C82.5177 74.7625 82.8242 74.7271 83.0894 74.845C83.5138 75.0278 83.7025 75.5229 83.8027 75.9768C84.3332 78.3817 83.5846 80.8751 82.6356 83.1504C81.6924 85.4256 81.2798 87.2529 80.4369 89.7993Z" fill="#EEDDD1"/>
<path d="M86.0129 99.3307C84.4803 95.3343 84.445 90.7837 85.9186 86.7637C86.2781 85.7793 86.8263 84.7301 87.8166 84.3882C88.0877 84.2939 88.3943 84.2585 88.6595 84.3764C89.0839 84.5591 89.2725 85.0543 89.3727 85.5081C89.9033 87.9131 89.1547 90.4065 88.2056 92.6817C87.2684 94.957 86.8617 96.7843 86.0129 99.3307Z" fill="#EEDDD1"/>
<path d="M94.9903 110.919C93.051 107.106 92.5441 102.579 93.5992 98.4289C93.8586 97.4092 94.2948 96.3128 95.2438 95.8707C95.5031 95.7469 95.8096 95.6821 96.0808 95.7705C96.5229 95.912 96.7645 96.3835 96.9119 96.8256C97.69 99.1598 97.2066 101.724 96.4934 104.082C95.7802 106.434 95.568 108.29 94.9903 110.919Z" fill="#EEDDD1"/>
<path d="M102.317 118.682C100.342 115.228 99.5526 110.86 100.142 106.628C100.289 105.591 100.578 104.447 101.368 103.864C101.586 103.705 101.84 103.593 102.087 103.64C102.482 103.71 102.724 104.141 102.889 104.547C103.744 106.722 103.52 109.31 103.089 111.733C102.659 114.155 102.618 116.018 102.317 118.682Z" fill="#EEDDD1"/>
<path d="M77.5191 83.0796C73.1277 82.8085 68.7599 80.8869 65.4708 77.7805C64.6633 77.0201 63.8675 76.0534 63.9088 74.9747C63.9206 74.68 64.0031 74.3735 64.2094 74.1731C64.5454 73.8489 65.0877 73.8842 65.5592 73.9845C68.0526 74.515 70.1628 76.2892 71.9842 78.1519C73.7997 80.0263 75.3971 81.1934 77.5191 83.0796Z" fill="#EEDDD1"/>
<path d="M81.1558 91.0432C76.8293 91.8271 72.1314 91.0078 68.188 88.7738C67.2213 88.2256 66.2192 87.4829 66.0011 86.4219C65.9422 86.1331 65.9481 85.8148 66.1072 85.5731C66.3548 85.1781 66.8912 85.0838 67.3745 85.072C69.9269 84.9954 72.3966 86.2097 74.6071 87.589C76.8116 88.9624 78.6389 89.7169 81.1558 91.0432Z" fill="#EEDDD1"/>
<path d="M87.0915 100.722C83.0066 102.361 78.238 102.49 73.935 101.093C72.8799 100.751 71.7481 100.221 71.3178 99.2306C71.2 98.9594 71.1469 98.647 71.2471 98.3759C71.4122 97.9397 71.9191 97.7392 72.3847 97.6272C74.8663 97.0378 77.5306 97.7392 79.9768 98.647C82.4231 99.5488 84.3623 99.9202 87.0915 100.722Z" fill="#EEDDD1"/>
<path d="M95.8392 112.322C91.4949 113.012 86.8147 112.086 82.9244 109.764C81.9694 109.198 80.9851 108.426 80.7906 107.365C80.7375 107.07 80.7552 106.758 80.9143 106.516C81.1737 106.127 81.7101 106.045 82.1934 106.039C84.7458 106.015 87.192 107.288 89.367 108.715C91.548 110.147 93.3576 110.943 95.8392 112.322Z" fill="#EEDDD1"/>
<path d="M103.403 119.561C99.8305 122.131 95.2387 123.41 90.7235 123.091C89.6153 123.015 88.3893 122.773 87.735 121.913C87.5582 121.677 87.4285 121.388 87.4638 121.099C87.5169 120.639 87.9649 120.321 88.3893 120.097C90.6587 118.93 93.4114 118.965 95.9991 119.254C98.5926 119.549 100.561 119.443 103.403 119.561Z" fill="#EEDDD1"/>
<path d="M17.6787 106.846C48.2593 105.449 79.1346 119.879 97.6905 144.229" stroke="#EEDDD1" stroke-width="1.393" stroke-miterlimit="10"/>
<path d="M24.133 106.787C20.2368 105.019 15.6921 104.724 11.5954 105.962C10.5934 106.263 9.5147 106.752 9.11387 107.719C9.00188 107.984 8.95472 108.29 9.05493 108.561C9.21408 108.998 9.69743 109.216 10.1454 109.34C12.515 110.012 15.0496 109.41 17.372 108.597C19.6886 107.783 21.5394 107.483 24.133 106.787Z" fill="#EEDDD1"/>
<path d="M32.8038 107.554C28.5244 107.477 24.2333 109.004 20.9677 111.768C20.1661 112.446 19.3703 113.318 19.388 114.368C19.3939 114.656 19.4646 114.957 19.665 115.163C19.9833 115.499 20.5138 115.511 20.9736 115.446C23.4139 115.122 25.5065 113.566 27.3161 111.898C29.1198 110.23 30.6995 109.222 32.8038 107.554Z" fill="#EEDDD1"/>
<path d="M43.9442 109.469C39.7061 108.874 35.2617 109.864 31.6778 112.204C30.7995 112.776 29.9036 113.548 29.7916 114.591C29.7621 114.88 29.7975 115.187 29.9684 115.417C30.2454 115.788 30.7701 115.865 31.2357 115.859C33.6996 115.835 35.9631 114.55 37.9613 113.112C39.9596 111.674 41.6454 110.866 43.9442 109.469Z" fill="#EEDDD1"/>
<path d="M54.4843 112.764C50.2461 112.169 45.8017 113.159 42.2178 115.499C41.3396 116.071 40.4436 116.843 40.3316 117.887C40.3021 118.175 40.3375 118.482 40.5084 118.712C40.7855 119.083 41.3101 119.16 41.7758 119.154C44.2397 119.13 46.5031 117.845 48.5014 116.407C50.5055 114.969 52.1913 114.161 54.4843 112.764Z" fill="#EEDDD1"/>
<path d="M67.788 118.906C63.6324 117.875 59.1113 118.399 55.3035 120.356C54.3721 120.834 53.3995 121.506 53.1755 122.531C53.1166 122.814 53.1225 123.121 53.2699 123.368C53.5056 123.769 54.0185 123.893 54.4841 123.94C56.9362 124.17 59.3235 123.127 61.4573 121.907C63.597 120.686 65.3594 120.056 67.788 118.906Z" fill="#EEDDD1"/>
<path d="M77.0007 124.306C73.1929 123.156 68.7602 123.368 64.7638 124.895C63.7853 125.266 62.7361 125.809 62.347 126.711C62.2409 126.958 62.1938 127.235 62.2881 127.465C62.4472 127.836 62.9188 127.978 63.355 128.043C65.6656 128.385 68.1413 127.589 70.4048 126.622C72.6683 125.655 74.472 125.196 77.0007 124.306Z" fill="#EEDDD1"/>
<path d="M36.7413 108.137C35.4916 103.917 32.6387 100.097 28.8721 97.586C27.9467 96.9729 26.8326 96.413 25.7893 96.69C25.5005 96.7666 25.2235 96.9199 25.0761 97.1675C24.8403 97.5683 24.9936 98.087 25.1999 98.5232C26.2786 100.834 28.4772 102.496 30.7053 103.846C32.9275 105.202 34.4247 106.493 36.7413 108.137Z" fill="#EEDDD1"/>
<path d="M45.3179 109.888C45.1116 105.49 43.2548 101.099 40.1956 97.7627C39.447 96.9434 38.4921 96.1359 37.4134 96.1594C37.1187 96.1653 36.8121 96.2479 36.6117 96.4483C36.2875 96.7784 36.3111 97.3207 36.4054 97.7981C36.9006 100.303 38.6394 102.437 40.4844 104.282C42.3176 106.127 43.4611 107.736 45.3179 109.888Z" fill="#EEDDD1"/>
<path d="M56.0749 113.501C56.7528 109.151 55.8097 104.477 53.4814 100.598C52.9096 99.649 52.1374 98.6646 51.0764 98.4701C50.7817 98.4171 50.4693 98.4348 50.2276 98.5939C49.8445 98.8533 49.7619 99.3897 49.756 99.873C49.7384 102.425 51.0175 104.866 52.4557 107.041C53.8881 109.216 54.6897 111.025 56.0749 113.501Z" fill="#EEDDD1"/>
<path d="M69.3492 119.419C69.0427 115.028 67.0916 110.678 63.9557 107.412C63.1895 106.61 62.2169 105.82 61.1382 105.868C60.8435 105.879 60.5369 105.968 60.3424 106.174C60.0241 106.51 60.0654 107.052 60.1656 107.524C60.7197 110.017 62.5057 112.11 64.386 113.914C66.2664 115.723 67.4453 117.309 69.3492 119.419Z" fill="#EEDDD1"/>
<path d="M78.0972 125.166C79.8007 121.111 80.0129 116.348 78.6866 112.016C78.3624 110.955 77.8496 109.811 76.8652 109.369C76.5941 109.245 76.2876 109.186 76.0164 109.286C75.5802 109.446 75.368 109.947 75.2502 110.412C74.6194 112.888 75.2737 115.564 76.1402 118.022C77.0067 120.474 77.3486 122.425 78.0972 125.166Z" fill="#EEDDD1"/>
<path d="M114.319 119.785C109.892 115.641 103.632 113.531 97.5962 114.138C93.5113 114.55 89.055 116.731 88.1532 120.74C87.7229 122.649 87.8762 125.178 86.0665 125.933C84.2982 126.669 82.5888 124.848 80.7733 124.235C77.7494 123.221 74.3012 126.675 75.3209 129.693C75.7866 131.067 76.9478 132.263 76.8476 133.707C76.7179 135.676 74.2835 136.702 72.3324 136.395C70.3813 136.089 68.6601 134.951 66.7503 134.462C64.8405 133.973 62.3589 134.462 61.687 136.319C61.0857 137.981 62.1231 140.215 60.8146 141.412C60.2546 141.924 59.447 142.03 58.6926 142.101C42.1349 143.675 23.8974 146.646 25.7483 149.587C26.2552 150.389 27.552 150.135 28.501 150.118C63.75 149.564 95.7689 149.039 131 150.124" fill="#EEDDD1"/>
<path d="M331.731 76.4913C321.24 100.907 301.027 120.838 276.795 131.638" stroke="#EEDDD1" stroke-width="1.393" stroke-miterlimit="10"/>
<path d="M328.652 82.9843C332.316 79.9315 334.824 75.5263 335.572 70.8192C335.756 69.6637 335.795 68.3507 335.02 67.4776C334.81 67.2347 334.528 67.0377 334.206 67.0049C333.694 66.9524 333.241 67.3331 332.893 67.7205C331.068 69.7688 330.438 72.5983 330.123 75.3228C329.814 78.0473 329.217 80.0497 328.652 82.9843Z" fill="#EEDDD1"/>
<path d="M323.67 91.3021C325.824 87.0479 326.382 82.0125 325.2 77.3907C324.911 76.2615 324.425 75.0404 323.368 74.5414C323.079 74.4036 322.738 74.3379 322.436 74.4298C321.944 74.5874 321.674 75.1126 321.517 75.605C320.657 78.2048 321.202 81.0606 321.99 83.6866C322.777 86.3126 323.027 88.3806 323.67 91.3021Z" fill="#EEDDD1"/>
<path d="M316.337 101.537C318.996 97.5784 320.158 92.648 319.554 87.9146C319.403 86.7526 319.074 85.4855 318.083 84.8619C317.814 84.6912 317.486 84.5796 317.17 84.6387C316.665 84.7306 316.337 85.223 316.114 85.6891C314.938 88.1641 315.129 91.0659 315.595 93.7641C316.068 96.4755 316.054 98.5566 316.337 101.537Z" fill="#EEDDD1"/>
<path d="M307.914 110.505C310.573 106.546 311.741 101.616 311.131 96.8824C310.98 95.7204 310.652 94.4533 309.66 93.8296C309.391 93.6589 309.063 93.5473 308.748 93.6064C308.242 93.6983 307.914 94.1907 307.691 94.6568C306.516 97.1319 306.706 100.034 307.172 102.732C307.638 105.437 307.632 107.524 307.914 110.505Z" fill="#EEDDD1"/>
<path d="M295.295 120.852C298.348 117.188 300.022 112.402 299.91 107.636C299.884 106.467 299.68 105.168 298.761 104.452C298.505 104.255 298.197 104.111 297.875 104.137C297.356 104.176 296.982 104.636 296.713 105.076C295.288 107.419 295.177 110.321 295.361 113.052C295.544 115.783 295.321 117.858 295.295 120.852Z" fill="#EEDDD1"/>
<path d="M285.408 127.456C288.415 124.2 290.352 119.65 290.759 114.91C290.857 113.748 290.824 112.435 290.115 111.608C289.918 111.378 289.669 111.201 289.393 111.188C288.947 111.168 288.579 111.569 288.297 111.976C286.833 114.129 286.426 116.991 286.294 119.729C286.163 122.467 285.75 124.495 285.408 127.456Z" fill="#EEDDD1"/>
<path d="M321.175 94.9655C326.007 95.7599 331.226 94.762 335.572 92.2016C336.636 91.5714 337.738 90.7245 337.968 89.5427C338.027 89.2211 338.014 88.8665 337.837 88.5974C337.555 88.1641 336.951 88.0656 336.419 88.059C333.576 88.0196 330.845 89.418 328.41 90.9936C325.967 92.5758 323.952 93.4424 321.175 94.9655Z" fill="#EEDDD1"/>
<path d="M315.253 102.712C319.757 104.642 325.061 104.912 329.893 103.467C331.075 103.113 332.355 102.555 332.854 101.458C332.992 101.156 333.057 100.815 332.952 100.513C332.782 100.027 332.224 99.7908 331.705 99.6529C328.954 98.9308 325.967 99.6398 323.23 100.585C320.479 101.531 318.306 101.892 315.253 102.712Z" fill="#EEDDD1"/>
<path d="M306.403 111.739C310.434 114.529 315.575 115.855 320.597 115.409C321.831 115.297 323.19 115.009 323.899 114.037C324.096 113.768 324.227 113.446 324.188 113.131C324.116 112.619 323.617 112.271 323.138 112.035C320.59 110.781 317.518 110.873 314.642 111.253C311.76 111.628 309.561 111.549 306.403 111.739Z" fill="#EEDDD1"/>
<path d="M294.021 122.165C298.571 123.99 303.876 124.147 308.675 122.591C309.85 122.211 311.11 121.626 311.59 120.517C311.721 120.215 311.78 119.867 311.668 119.565C311.485 119.079 310.92 118.856 310.401 118.731C307.637 118.075 304.67 118.849 301.946 119.854C299.221 120.871 297.061 121.285 294.021 122.165Z" fill="#EEDDD1"/>
<path d="M284.017 128.145C287.253 131.822 291.928 134.356 296.91 135.124C298.132 135.314 299.523 135.36 300.449 134.586C300.705 134.376 300.915 134.093 300.948 133.772C301 133.26 300.6 132.8 300.193 132.459C298.02 130.627 295.02 129.984 292.138 129.655C289.242 129.327 287.122 128.723 284.017 128.145Z" fill="#EEDDD1"/>
<path d="M234.221 138.702C263.251 139.096 292.282 139.49 321.313 139.89C322.285 139.903 325.357 138.951 320.066 135.544C315.582 132.656 301.421 135.255 301.421 135.255C301.421 135.255 304.716 133.936 304.703 132.229C304.69 130.522 303.397 129.025 301.841 128.316C300.292 127.607 298.519 127.555 296.819 127.653C293.352 127.85 289.919 128.618 286.702 129.918C288.067 129.078 288.488 127.016 287.555 125.71C286.623 124.403 284.542 124.128 283.301 125.152C285.474 122.204 288.842 109.146 278.502 103.388C265.543 96.1735 255.702 102.108 253.601 106.454C252.537 102.194 247.646 98.9636 244.423 98.1693C237.076 96.3442 232.297 96.8891 225.437 100.086C223.014 101.222 219.764 105.089 218.149 107.222C215.622 110.571 215.228 115.022 215.09 119.21C214.985 122.355 214.972 125.506 215.051 128.651" fill="#EEDDD1"/>
<path d="M257.745 59.803C257.634 59.7974 257.545 59.7086 257.54 59.5976L257.462 58.4932C257.451 58.3711 257.545 58.2656 257.667 58.26C257.784 58.2489 257.895 58.3433 257.9 58.4654L257.978 59.5699C257.989 59.692 257.895 59.7974 257.773 59.803C257.762 59.803 257.75 59.803 257.745 59.803Z" fill="#C6AB97"/>
<path d="M262.701 109.97L259.787 110.175L256.54 63.133L258 63.0331L259.454 62.9276L262.701 109.97Z" fill="#EEDDD1"/>
<path d="M258.022 59.1259L257.428 59.1647L256.54 63.133L259.454 62.9276L258.022 59.1259Z" fill="#EEDDD1"/>
<path d="M248.453 70.4756L258.288 109.054L256.417 109.531L244.246 71.5467" fill="#E1CABA"/>
<path d="M239.345 71.3526C234.322 72.6346 228.972 68.7385 227.424 62.6667C225.875 56.595 228.706 50.6176 233.728 49.3355C238.751 48.0535 244.102 51.9496 245.65 58.0214C247.198 64.0931 244.368 70.0761 239.345 71.3526ZM234.594 52.71C231.431 53.5147 229.732 57.5996 230.804 61.8065C231.875 66.0134 235.321 68.7829 238.485 67.9782C241.648 67.1734 243.347 63.0886 242.276 58.8816C241.199 54.6747 237.752 51.9052 234.594 52.71Z" fill="#D5BDAB"/>
<path d="M244.517 60.6354C244.678 61.2736 247.509 72.3682 247.509 72.3682C247.659 72.9565 247.304 73.5559 246.715 73.7113C246.127 73.8611 245.527 73.5059 245.372 72.9176L245.034 71.5912C245.034 71.5912 243.463 68.2389 239.117 69.6209C239.117 69.6209 244.295 68.9715 244.473 68.9882C244.656 68.9937 244.356 59.9916 244.517 60.6354Z" fill="#C0EDFF"/>
<path d="M247.143 75.393C245.622 75.7815 244.074 74.8602 243.685 73.3394C243.685 73.3394 243.508 72.4181 243.147 71.9075C242.586 71.1083 241.437 70.8086 239.339 71.3414L238.807 68.3777C239.911 68.0225 240.705 67.4897 241.593 67.5563C242.07 67.5008 242.464 67.4508 242.792 67.412C242.786 66.5018 242.769 65.303 242.758 64.3872C242.747 63.4104 244.013 62.3115 244.007 61.6122C244.001 60.3523 242.714 59.0869 244.273 58.876L245.811 58.6707L249.202 71.9353C249.585 73.456 248.664 75.0045 247.143 75.393Z" fill="#D5BDAB"/>
<path d="M249.901 70.1259L249.929 109.942L251.861 109.936L254.242 70.1204" fill="#E1CABA"/>
<path d="M249.524 57.3665C249.519 51.1005 253.737 46 258.921 46C264.104 45.9945 268.328 51.0894 268.334 57.3554C268.339 63.6214 264.121 68.7219 258.937 68.7219C253.754 68.7275 249.53 63.6325 249.524 57.3665ZM253.01 57.3665C253.015 61.7122 255.674 65.242 258.937 65.242C262.201 65.242 264.854 61.7011 264.854 57.361C264.848 53.0153 262.19 49.4854 258.926 49.4854C255.663 49.4854 253.01 53.0208 253.01 57.3665Z" fill="#D5BDAB"/>
<path d="M251.272 59.6143C251.272 60.2747 251.284 71.7189 251.284 71.7189C251.284 72.3294 251.778 72.8234 252.388 72.8234C252.999 72.8234 253.492 72.3294 253.492 71.7189V70.3536C253.492 70.3536 254.186 66.7183 258.732 66.9792C258.732 66.9792 253.554 67.6341 253.387 67.6896C253.209 67.7506 251.267 58.9538 251.272 59.6143Z" fill="#C0EDFF"/>
<path d="M252.382 74.566C253.953 74.566 255.224 73.2895 255.224 71.7188C255.224 71.7188 255.168 70.7809 255.39 70.1981C255.74 69.2824 256.772 68.7107 258.942 68.7107L258.72 65.7081C257.566 65.6415 256.661 65.3196 255.818 65.6027C255.34 65.6637 254.946 65.7137 254.619 65.7581C254.397 64.8756 254.119 63.7101 253.903 62.8166C253.675 61.8675 252.177 61.1182 252.005 60.4411C251.699 59.2201 252.632 57.6717 251.067 57.8548L249.529 58.038L249.535 71.7299C249.54 73.2951 250.817 74.566 252.382 74.566Z" fill="#D5BDAB"/>
<path d="M266.661 102.893L261.655 101.989L269.431 58.9204C269.492 58.5652 269.83 58.3321 270.186 58.3987L273.915 59.0702C274.271 59.1313 274.504 59.4698 274.437 59.8251L266.661 102.893Z" fill="#EEDDD1"/>
<path d="M273.69 63.971L268.684 63.0663L269.433 58.926C269.494 58.5708 269.832 58.3377 270.188 58.4043L273.917 59.0759C274.272 59.1369 274.506 59.4755 274.439 59.8307L273.69 63.971Z" fill="#D5BDAB"/>
<g opacity="0.5">
<g opacity="0.5">
<path opacity="0.5" d="M268.683 63.0593L268.412 64.5613L273.421 65.4657L273.692 63.9637L268.683 63.0593Z" fill="#599FD2"/>
</g>
</g>
<path d="M288 68.5635L279.826 65.3418L262.401 109.549L270.574 112.771L288 68.5635Z" fill="#EEDDD1"/>
<path d="M284.75 68.9385L287.442 69.9985" stroke="#F8EDE6" stroke-width="1.393" stroke-miterlimit="10"/>
<path d="M283.838 71.2362L286.535 72.2963" stroke="#F8EDE6" stroke-width="1.393" stroke-miterlimit="10"/>
<path d="M282.935 73.5283L285.632 74.5939" stroke="#F8EDE6" stroke-width="1.393" stroke-miterlimit="10"/>
<path d="M280.714 75.3043L284.727 76.8861" stroke="#F8EDE6" stroke-width="1.393" stroke-miterlimit="10"/>
<path d="M281.125 78.1239L283.817 79.184" stroke="#F8EDE6" stroke-width="1.393" stroke-miterlimit="10"/>
<path d="M280.221 80.4215L282.912 81.4816" stroke="#F8EDE6" stroke-width="1.393" stroke-miterlimit="10"/>
<path d="M279.315 82.7137L282.007 83.7794" stroke="#F8EDE6" stroke-width="1.393" stroke-miterlimit="10"/>
<path d="M277.096 84.4952L281.103 86.0715" stroke="#F8EDE6" stroke-width="1.393" stroke-miterlimit="10"/>
<path d="M277.507 87.3091L280.199 88.3691" stroke="#F8EDE6" stroke-width="1.393" stroke-miterlimit="10"/>
<path d="M276.602 89.6069L279.293 90.667" stroke="#F8EDE6" stroke-width="1.393" stroke-miterlimit="10"/>
<path d="M275.697 91.899L278.389 92.9647" stroke="#F8EDE6" stroke-width="1.393" stroke-miterlimit="10"/>
<path d="M273.472 93.6807L277.484 95.2569" stroke="#F8EDE6" stroke-width="1.393" stroke-miterlimit="10"/>
<path d="M273.888 96.4945L276.579 97.5546" stroke="#F8EDE6" stroke-width="1.393" stroke-miterlimit="10"/>
<path d="M272.977 98.7922L275.674 99.8523" stroke="#F8EDE6" stroke-width="1.393" stroke-miterlimit="10"/>
<path d="M272.072 101.084L274.77 102.15" stroke="#F8EDE6" stroke-width="1.393" stroke-miterlimit="10"/>
<path d="M269.853 102.866L273.865 104.442" stroke="#F8EDE6" stroke-width="1.393" stroke-miterlimit="10"/>
<path d="M270.263 105.68L272.954 106.74" stroke="#F8EDE6" stroke-width="1.393" stroke-miterlimit="10"/>
<path d="M269.359 107.978L272.051 109.038" stroke="#F8EDE6" stroke-width="1.393" stroke-miterlimit="10"/>
<path d="M268.454 110.27L271.146 111.335" stroke="#F8EDE6" stroke-width="1.393" stroke-miterlimit="10"/>
<path d="M276.552 153.132H235.804L228.961 91.4936C228.872 90.711 229.488 90.0228 230.276 90.0228H282.08C282.868 90.0228 283.484 90.7055 283.396 91.4936L276.552 153.132Z" fill="#D5BDAB"/>
<path d="M157.271 5.96866C153.295 6.71464 150.674 10.546 151.42 14.5227L153.152 23.7609L167.565 21.0572C167.565 21.0572 166.19 13.7244 165.833 11.819C165.079 7.84365 161.248 5.22268 157.271 5.96866ZM159.398 17.3071C157.168 17.7254 155.017 16.2537 154.598 14.0236C154.18 11.7934 155.652 9.64202 157.882 9.22368C160.112 8.80533 162.263 10.2771 162.682 12.5072C163.101 14.7446 161.628 16.8887 159.398 17.3071Z" fill="#79D8FD"/>
<g opacity="0.45">
<g opacity="0.45">
<path opacity="0.45" d="M162.683 12.5069C162.265 10.2767 160.113 8.80498 157.883 9.22332C157.674 9.26258 157.484 9.32801 157.288 9.39478C157.851 9.0501 157.85 8.88591 158.853 8.69772C161.083 8.27937 163.234 9.7511 163.653 11.9813C164.033 14.0093 163.206 15.2927 161.722 15.9894C162.449 15.0835 162.915 13.741 162.683 12.5069ZM155.175 22.4252L153.443 13.1942C152.973 10.6898 153.649 8.27683 155.348 6.62074C152.492 8.04552 150.796 11.2326 151.414 14.5237L153.147 23.7619L167.56 21.0582C167.56 21.0582 167.492 20.6974 167.386 20.1344L155.175 22.4252Z" fill="#B03D44"/>
</g>
</g>
<path d="M255.975 203.755L134.226 226.593C130.343 227.322 126.606 224.765 125.877 220.882L92.4935 42.9175C91.7651 39.0346 94.3216 35.2975 98.2045 34.5691L219.954 11.7307C223.837 11.0023 227.574 13.5588 228.302 17.4417L261.686 195.407C262.414 199.29 259.858 203.027 255.975 203.755Z" fill="#C6AB97"/>
<path d="M220.524 19.4237L100.456 41.9467L133.652 218.908L253.719 196.385L220.524 19.4237Z" fill="#E1CABA"/>
<path d="M216.925 25.6948L106.089 46.4862L137.256 212.636L248.093 191.845L216.925 25.6948Z" fill="white"/>
<path d="M203.35 18.1326L204.704 25.3499L117.338 41.7385L115.985 34.5212C115.886 33.9943 115.87 33.4742 115.933 32.9694C116.188 30.7848 117.835 28.9293 120.101 28.5042L197.333 14.0164C200.134 13.4911 202.825 15.3322 203.35 18.1326Z" fill="#79D8FD"/>
<path opacity="0.45" d="M204.366 23.5456L204.704 25.3499L117.338 41.7385L116.358 36.5131C116.096 35.113 115.958 33.9433 115.933 32.9694C116.188 30.7848 117.835 28.9293 120.101 28.5042L120.721 28.3877C119.627 29.9229 119.021 32.0688 119.398 34.0752L120.378 39.3005L204.366 23.5456Z" fill="#62C4EB"/>
<g opacity="0.15">
<path opacity="0.15" d="M140.133 58.3824L158.14 55.0045" stroke="#0964AF" stroke-width="3.1215" stroke-miterlimit="10" stroke-linecap="round" stroke-linejoin="round"/>
<path opacity="0.15" d="M199.619 53.1632L213.31 50.5949" stroke="#0964AF" stroke-width="3.1215" stroke-miterlimit="10" stroke-linecap="round" stroke-linejoin="round"/>
<path opacity="0.15" d="M141.208 64.1201L193.685 54.2761" stroke="#0964AF" stroke-width="3.1215" stroke-miterlimit="10" stroke-linecap="round" stroke-linejoin="round"/>
<path opacity="0.15" d="M142.284 69.8579L214.385 56.3327" stroke="#0964AF" stroke-width="3.1215" stroke-miterlimit="10" stroke-linecap="round" stroke-linejoin="round"/>
<path opacity="0.15" d="M192.548 66.3765L215.463 62.0779" stroke="#0964AF" stroke-width="3.1215" stroke-miterlimit="10" stroke-linecap="round" stroke-linejoin="round"/>
<path opacity="0.15" d="M143.363 75.603L186.84 67.4473" stroke="#0964AF" stroke-width="3.1215" stroke-miterlimit="10" stroke-linecap="round" stroke-linejoin="round"/>
<path opacity="0.15" d="M164.051 53.8955L212.234 44.8571" stroke="#0964AF" stroke-width="3.1215" stroke-miterlimit="10" stroke-linecap="round" stroke-linejoin="round"/>
</g>
<g opacity="0.15">
<path opacity="0.15" d="M147.873 99.6439L165.88 96.266" stroke="#0964AF" stroke-width="3.1215" stroke-miterlimit="10" stroke-linecap="round" stroke-linejoin="round"/>
<path opacity="0.15" d="M207.359 94.4247L221.051 91.8564" stroke="#0964AF" stroke-width="3.1215" stroke-miterlimit="10" stroke-linecap="round" stroke-linejoin="round"/>
<path opacity="0.15" d="M148.948 105.382L201.425 95.5376" stroke="#0964AF" stroke-width="3.1215" stroke-miterlimit="10" stroke-linecap="round" stroke-linejoin="round"/>
<path opacity="0.15" d="M150.024 111.119L222.126 97.5941" stroke="#0964AF" stroke-width="3.1215" stroke-miterlimit="10" stroke-linecap="round" stroke-linejoin="round"/>
<path opacity="0.15" d="M200.288 107.638L223.203 103.339" stroke="#0964AF" stroke-width="3.1215" stroke-miterlimit="10" stroke-linecap="round" stroke-linejoin="round"/>
<path opacity="0.15" d="M151.104 116.865L194.581 108.709" stroke="#0964AF" stroke-width="3.1215" stroke-miterlimit="10" stroke-linecap="round" stroke-linejoin="round"/>
<path opacity="0.15" d="M171.79 95.157L219.973 86.1185" stroke="#0964AF" stroke-width="3.1215" stroke-miterlimit="10" stroke-linecap="round" stroke-linejoin="round"/>
</g>
<g opacity="0.15">
<path opacity="0.15" d="M214.828 134.243L228.519 131.675" stroke="#0964AF" stroke-width="3.1215" stroke-miterlimit="10" stroke-linecap="round" stroke-linejoin="round"/>
<path opacity="0.15" d="M179.26 134.975L227.443 125.937" stroke="#0964AF" stroke-width="3.1215" stroke-miterlimit="10" stroke-linecap="round" stroke-linejoin="round"/>
</g>
<path d="M135.312 74.5805L121.844 77.1068C121.007 77.2639 120.201 76.7127 120.044 75.8755L117.517 62.4008C117.36 61.5636 117.911 60.7579 118.748 60.6008L132.216 58.0745C133.053 57.9175 133.858 58.4686 134.016 59.3058L136.542 72.7734C136.7 73.6178 136.149 74.4235 135.312 74.5805Z" stroke="#EDDED3" stroke-width="1.1566" stroke-miterlimit="10"/>
<path d="M143.024 115.705L129.557 118.231C128.72 118.388 127.914 117.837 127.757 117L125.231 103.532C125.074 102.695 125.625 101.889 126.462 101.732L139.929 99.2058C140.767 99.0488 141.572 99.6 141.729 100.437L144.256 113.905C144.413 114.742 143.862 115.548 143.024 115.705Z" stroke="#EDDED3" stroke-width="1.1566" stroke-miterlimit="10"/>
<path d="M120.264 65.8527L127.894 72.1989L136.318 51.0664" stroke="#99E2FF" stroke-width="3.4699" stroke-miterlimit="10" stroke-linecap="round" stroke-linejoin="round"/>
<path d="M127.914 106.638L135.545 112.984L143.968 91.8513" stroke="#99E2FF" stroke-width="3.4699" stroke-miterlimit="10" stroke-linecap="round" stroke-linejoin="round"/>
</g>
<defs>
<clipPath id="clip0_354:5384">
<rect width="352" height="131" rx="6" fill="white"/>
</clipPath>
</defs>
</svg>
