<svg width="70" height="70" viewBox="0 0 70 70" fill="none" xmlns="http://www.w3.org/2000/svg">
<rect width="70" height="70" rx="6" fill="#FAF3EE"/>
<path d="M45.4726 47.01L43.8073 48.6753L42.6457 49.0729L34.8081 51.7542L26.9298 54.4489L19.1328 57.1166L12.1654 59.5002H10.5V57.8348L11.9249 54.4146L13.9504 49.5528L15.9759 44.692L18.1503 39.4742L20.0269 34.9704L22.0524 30.1097L22.9902 27.8583L24.6556 26.1929L32.4828 34.0201L41.4747 43.0121L45.4726 47.01Z" fill="#D8C1B0"/>
<path d="M26.9307 54.449L19.1337 57.1167L11.9258 54.4147L13.9513 49.5529L26.9307 54.449Z" fill="#E1CABA"/>
<path d="M42.6463 49.0729L34.8087 51.7541L15.9766 44.6919L18.1509 39.4741L42.6463 49.0729Z" fill="#E1CABA"/>
<path d="M41.4751 43.012L20.0273 34.9703L22.0528 30.1096L32.4832 34.02L41.4751 43.012Z" fill="#E1CABA"/>
<path d="M28.8197 25.3602L32.3016 21.8783C32.7379 21.4419 32.9831 20.8501 32.9831 20.233C32.9831 19.7776 32.8495 19.3323 32.5988 18.9521C32.3481 18.572 31.9914 18.2737 31.5729 18.0944L29.4047 17.1652C27.9303 16.5333 26.6477 15.5252 25.6852 14.2419L24.6562 12.87L27.1543 11.2046C28.2337 12.8236 29.8219 14.0367 31.6679 14.652L32.6596 14.9826C33.7237 15.3373 34.6492 16.0178 35.305 16.9277C35.9609 17.8377 36.3138 18.9309 36.3138 20.0525C36.3138 21.3282 35.8574 22.5619 35.0272 23.5304L31.3177 27.8582L28.8197 25.3602Z" fill="#FFC431"/>
<path d="M40.4772 21.1964L39.6445 16.2003L44.6406 17.8657L40.4772 21.1964Z" fill="#EED8C7"/>
<path d="M35.291 12.8495L35.6957 11.2341L39.026 12.0684L38.6213 13.6838L35.291 12.8495Z" fill="#FB6A83"/>
<path d="M43.3438 12.1664L45.8416 10.5002L46.7659 11.8858L44.268 13.552L43.3438 12.1664Z" fill="#FFC431"/>
<path d="M23.8496 18.0593L25.465 17.6546L26.2993 20.9849L24.6839 21.3896L23.8496 18.0593Z" fill="#7DE489"/>
<path d="M44.6406 41.1806L48.1225 37.6987C48.5589 37.2623 49.1507 37.0172 49.7678 37.0172C50.2232 37.0172 50.6685 37.1508 51.0487 37.4015C51.4288 37.6521 51.7271 38.0089 51.9064 38.4274L52.8356 40.5955C53.4675 42.0699 54.4756 43.3525 55.7588 44.315L57.1308 45.344L58.7962 42.846C57.1772 41.7666 55.9641 40.1784 55.3488 38.3324L55.0182 37.3406C54.6635 36.2766 53.983 35.351 53.0731 34.6952C52.1631 34.0394 51.0699 33.6865 49.9483 33.6865C48.6726 33.6865 47.4389 34.1428 46.4704 34.973L42.1426 38.6826L44.6406 41.1806Z" fill="#7DE489"/>
<path d="M51.3008 30.3563L56.2969 31.189L54.6315 26.1929L51.3008 30.3563Z" fill="#FFC431"/>
<path d="M56.3262 33.8623L57.9416 33.4576L58.7759 36.7879L57.1605 37.1926L56.3262 33.8623Z" fill="#FB6A83"/>
<path d="M56.4512 25.7383L58.1174 23.2405L59.503 24.1648L57.8368 26.6626L56.4512 25.7383Z" fill="#EED8C7"/>
<path d="M48.6152 45.3419L49.0199 43.7265L52.3502 44.5608L51.9455 46.1762L48.6152 45.3419Z" fill="#7DE489"/>
<path d="M34.6465 32.0213L37.9628 28.1498C39.0396 26.8925 40.5539 26.0913 42.1992 25.9085L42.2937 25.898C43.705 25.7433 45.0325 25.1509 46.09 24.2037C47.1476 23.2565 47.8822 22.0021 48.1908 20.6163V20.6163C48.3753 19.7863 48.7829 19.0223 49.3697 18.4069C49.9565 17.7916 50.7001 17.3481 51.5205 17.1243L57.9616 15.3677L58.7942 18.6984L54.2915 19.699C53.4021 19.8966 52.5897 20.3492 51.9535 21.0012C51.3173 21.6533 50.8849 22.4767 50.7092 23.3706L50.6856 23.4909C50.3901 24.9939 49.6188 26.3619 48.4857 27.3927C47.3527 28.4235 45.918 29.0623 44.3938 29.2147L44.2954 29.2245C42.3832 29.4111 40.6215 30.3436 39.3919 31.8199C38.3005 33.1322 37.1445 34.5194 37.1445 34.5194L34.6465 32.0213Z" fill="#FB6A83"/>
</svg>
