<svg width="81" height="66" viewBox="0 0 81 66" fill="none" xmlns="http://www.w3.org/2000/svg">
<path d="M70.2998 56.8221C71.2791 56.9527 72.0353 57.7884 72.0353 58.8036C72.0353 59.9076 71.1398 60.8036 70.0352 60.8036H56.0313C54.9267 60.8036 54.0312 59.9076 54.0312 58.8036C54.0312 57.698 54.9267 56.8019 56.0313 56.8019H57.2071C56.967 56.3202 56.832 55.7769 56.832 55.2015C56.832 53.2134 58.4439 51.6016 60.432 51.6016C62.4206 51.6016 64.0341 53.2134 64.0341 55.2015C64.0341 55.7769 63.8975 56.3202 63.6585 56.8019H64.9671C64.9671 55.3294 66.1604 54.1351 67.634 54.1351C69.1082 54.1351 70.3014 55.3294 70.3014 56.8019C70.3014 56.809 70.2998 56.815 70.2998 56.8221Z" fill="#F3F3F3"/>
<path d="M31.0855 8.00389C32.3996 8.17918 33.4132 9.30059 33.4132 10.6621C33.4132 12.1449 32.2113 13.3453 30.7289 13.3453H11.9421C10.4598 13.3453 9.25781 12.1449 9.25781 10.6621C9.25781 9.17974 10.4598 7.97776 11.9421 7.97776H13.5181C13.1974 7.33105 13.0145 6.60213 13.0145 5.8313C13.0145 3.16279 15.1784 1 17.8458 1C20.5143 1 22.6771 3.16279 22.6771 5.8313C22.6771 6.60213 22.4959 7.33105 22.1736 7.97776H23.9292C23.9292 6.00115 25.5324 4.39906 27.5079 4.39906C29.485 4.39906 31.0866 6.00115 31.0866 7.97776C31.0866 7.98647 31.0855 7.99518 31.0855 8.00389Z" fill="#F3F3F3"/>
<path d="M21.2691 46.7576C22.2479 46.8888 23.0046 47.7239 23.0046 48.7392C23.0046 49.8431 22.1085 50.7392 21.0045 50.7392H7.00002C5.89549 50.7392 5 49.8431 5 48.7392C5 47.6335 5.89549 46.7375 7.00002 46.7375H8.17641C7.9358 46.2563 7.80079 45.7124 7.80079 45.1376C7.80079 43.149 9.41268 41.5371 11.4013 41.5371C13.3899 41.5371 15.0028 43.149 15.0028 45.1376C15.0028 45.7124 14.8662 46.2563 14.6278 46.7375H15.9359C15.9359 45.2655 17.1297 44.0706 18.6033 44.0706C20.0769 44.0706 21.2702 45.2655 21.2702 46.7375C21.2702 46.7451 21.2691 46.7506 21.2691 46.7576Z" fill="#F3F3F3"/>
<path d="M57.6259 59.7557C57.903 58.8825 58.7446 58.312 59.6602 58.312C60.136 58.312 60.5007 57.8798 60.4082 57.4133C60.3636 57.1868 60.3396 56.9522 60.3396 56.7121C60.3396 54.9097 61.6641 53.4165 63.393 53.153C62.6924 52.1443 61.4899 51.5101 60.1469 51.6135C58.3771 51.7496 56.9514 53.1982 56.8393 54.9696C56.7979 55.631 56.9351 56.2565 57.2073 56.803H56.0897C55.0124 56.803 54.0853 57.6299 54.0336 58.7062C53.9786 59.8553 54.8943 60.8042 56.0314 60.8042H57.6025C57.5203 60.4808 57.5078 60.1297 57.6259 59.7557Z" fill="#E9E9E9"/>
<path d="M12.7854 11.8427C12.952 10.484 14.1523 9.48779 15.5214 9.48779C16.2035 9.48779 16.7207 8.87156 16.5993 8.20035C16.5487 7.92164 16.5225 7.63421 16.5225 7.34079C16.5225 4.67282 18.6853 2.51058 21.3522 2.51003C20.4714 1.58079 19.227 1.00049 17.8459 1.00049C15.1785 1.00049 13.0146 3.16328 13.0146 5.83179C13.0146 6.60262 13.197 7.33154 13.5176 7.97825H12.0064C10.5508 7.97825 9.3107 9.11054 9.25953 10.5656C9.20564 12.0926 10.4278 13.3458 11.9422 13.3458H13.0386C12.8208 12.8999 12.719 12.3871 12.7854 11.8427Z" fill="#E9E9E9"/>
<path d="M8.59521 49.6913C8.87175 48.8186 9.71335 48.2481 10.629 48.2481C11.1048 48.2481 11.4695 47.8154 11.3769 47.3488C11.3323 47.1224 11.3089 46.8877 11.3089 46.6477C11.3089 44.8453 12.6328 43.3526 14.3617 43.0886C13.6611 42.0799 12.4586 41.4457 11.1162 41.5491C9.34644 41.6852 7.92019 43.1338 7.80859 44.9057C7.76667 45.5666 7.90385 46.1926 8.17658 46.7386H7.05844C5.98113 46.7386 5.05407 47.566 5.00235 48.6417C4.94737 49.7909 5.86355 50.7403 7.0002 50.7403H8.57125C8.48905 50.4164 8.47653 50.0652 8.59521 49.6913Z" fill="#E9E9E9"/>
<path d="M57.9997 31.0964L50.0404 34.7668L51.7988 29.1538L57.9997 31.0964Z" fill="#C6AB97"/>
<path d="M80.558 12.3543L51.7967 29.1534L50.0383 34.7664L45.0436 27.0378L80.558 12.3543Z" fill="#D8C1B0"/>
<path d="M80.5591 12.3548L45.0447 27.0383L34.0298 23.5877C33.7534 23.5011 33.769 23.1048 34.051 23.04L80.5591 12.3548Z" fill="#E1CABA"/>
<path d="M80.5587 12.3549L68.0905 33.9373C67.9988 34.0962 67.8092 34.17 67.6344 34.1152L51.7975 29.154L80.5587 12.3549Z" fill="#E1CABA"/>
<path d="M44.8653 33.5365C36.8285 33.847 19.8836 44.6062 30.0354 59.2962C32.6837 63.1284 40.4625 63.7969 42.969 55.6017C47.0295 42.3253 26.5134 37.3661 1.00038 61.6069" stroke="#C6AB97" stroke-linecap="round" stroke-dasharray="2 2"/>
</svg>
