<svg width="70" height="70" viewBox="0 0 70 70" fill="none" xmlns="http://www.w3.org/2000/svg">
<rect width="70" height="70" rx="6" fill="#FAF3EE"/>
<path d="M43.5742 37.9289L37.0762 43.8109V37.9289H43.5742Z" fill="#C6AB97"/>
<path d="M59.4988 13.3L37.0748 37.929V43.8109L29.998 37.929L59.4988 13.3Z" fill="#D8C1B0"/>
<path d="M59.4998 13.3L29.999 37.929H18.4563C18.1666 37.929 18.063 37.5461 18.3128 37.4L59.4998 13.3Z" fill="#E1CABA"/>
<path d="M23.8017 36.3771C23.5119 36.3771 23.408 35.9943 23.6581 35.8482L53.1884 18.5689L59.4996 13.3L18.3129 37.3996C18.0629 37.5461 18.1668 37.929 18.4561 37.929H29.9992L31.8579 36.3771H23.8017Z" fill="#E1CABA"/>
<path d="M59.5002 13.3L54.0541 37.6228C54.0141 37.8018 53.8552 37.929 53.672 37.929H37.0762L59.5002 13.3Z" fill="#E1CABA"/>
<path d="M55.3441 54.6035C56.0166 54.6932 56.5359 55.2671 56.5359 55.9643C56.5359 56.7224 55.9209 57.3378 55.1624 57.3378H45.5454C44.7868 57.3378 44.1719 56.7224 44.1719 55.9643C44.1719 55.205 44.7868 54.5897 45.5454 54.5897H46.3529C46.188 54.2588 46.0953 53.8857 46.0953 53.4906C46.0953 52.1253 47.2022 51.0184 48.5675 51.0184C49.9331 51.0184 51.0412 52.1253 51.0412 53.4906C51.0412 53.8857 50.9473 54.2588 50.7832 54.5897H51.6819C51.6819 53.5784 52.5014 52.7582 53.5134 52.7582C54.5257 52.7582 55.3452 53.5784 55.3452 54.5897C55.3452 54.5945 55.3441 54.5986 55.3441 54.6035Z" fill="#99E2FF"/>
<path d="M28.4137 21.0784C29.3161 21.1987 30.0122 21.9689 30.0122 22.9038C30.0122 23.9222 29.1868 24.7465 28.1688 24.7465H15.2672C14.2493 24.7465 13.4238 23.9222 13.4238 22.9038C13.4238 21.8859 14.2493 21.0604 15.2672 21.0604H16.3495C16.1293 20.6163 16.0037 20.1157 16.0037 19.5864C16.0037 17.7538 17.4897 16.2686 19.3215 16.2686C21.1541 16.2686 22.6393 17.7538 22.6393 19.5864C22.6393 20.1157 22.5149 20.6163 22.2935 21.0604H23.4992C23.4992 19.703 24.6001 18.6028 25.9568 18.6028C27.3146 18.6028 28.4144 19.703 28.4144 21.0604C28.4144 21.0664 28.4137 21.0724 28.4137 21.0784Z" fill="#99E2FF"/>
<path d="M21.6726 47.6916C22.3447 47.7817 22.8644 48.3551 22.8644 49.0523C22.8644 49.8105 22.249 50.4258 21.4909 50.4258H11.8735C11.115 50.4258 10.5 49.8105 10.5 49.0523C10.5 48.2931 11.115 47.6777 11.8735 47.6777H12.6814C12.5161 47.3473 12.4234 46.9738 12.4234 46.579C12.4234 45.2134 13.5303 44.1064 14.896 44.1064C16.2616 44.1064 17.3693 45.2134 17.3693 46.579C17.3693 46.9738 17.2755 47.3473 17.1117 47.6777H18.0101C18.0101 46.6669 18.8299 45.8463 19.8419 45.8463C20.8539 45.8463 21.6733 46.6669 21.6733 47.6777C21.6733 47.683 21.6726 47.6867 21.6726 47.6916Z" fill="#99E2FF"/>
<path d="M46.6405 56.6179C46.8307 56.0183 47.4087 55.6265 48.0375 55.6265C48.3642 55.6265 48.6147 55.3297 48.5511 55.0093C48.5205 54.8538 48.504 54.6927 48.504 54.5278C48.504 53.29 49.4136 52.2646 50.6009 52.0836C50.1198 51.3909 49.294 50.9554 48.3717 51.0264C47.1564 51.1199 46.1773 52.1147 46.1003 53.3311C46.0718 53.7854 46.1661 54.2149 46.353 54.5902H45.5855C44.8457 54.5902 44.209 55.1581 44.1735 55.8972C44.1357 56.6863 44.7645 57.3379 45.5455 57.3379H46.6244C46.5679 57.1159 46.5593 56.8748 46.6405 56.6179Z" fill="#79D8FD"/>
<path d="M15.8464 23.7148C15.9608 22.7817 16.7851 22.0976 17.7253 22.0976C18.1937 22.0976 18.5488 21.6744 18.4655 21.2134C18.4307 21.022 18.4128 20.8246 18.4128 20.6231C18.4128 18.791 19.898 17.3061 21.7295 17.3057C21.1246 16.6676 20.27 16.269 19.3216 16.269C17.4898 16.269 16.0038 17.7543 16.0038 19.5869C16.0038 20.1162 16.129 20.6168 16.3492 21.0609H15.3114C14.3118 21.0609 13.4601 21.8385 13.425 22.8378C13.388 23.8864 14.2273 24.747 15.2673 24.747H16.0202C15.8707 24.4408 15.8008 24.0886 15.8464 23.7148Z" fill="#79D8FD"/>
<path d="M12.969 49.706C13.1589 49.1067 13.7368 48.715 14.3656 48.715C14.6924 48.715 14.9428 48.4178 14.8793 48.0974C14.8486 47.9419 14.8325 47.7807 14.8325 47.6159C14.8325 46.3781 15.7417 45.353 16.929 45.1717C16.4479 44.479 15.6221 44.0435 14.7002 44.1145C13.4849 44.208 12.5054 45.2027 12.4288 46.4196C12.4 46.8734 12.4942 47.3033 12.6815 47.6783H11.9136C11.1738 47.6783 10.5371 48.2465 10.5016 48.9852C10.4639 49.7744 11.093 50.4264 11.8736 50.4264H12.9525C12.8961 50.204 12.8875 49.9628 12.969 49.706Z" fill="#79D8FD"/>
</svg>
